<?xml version="1.0" encoding="UTF-8"?>
<svg width="26px" height="26px" viewBox="0 0 26 26" version="1.1" xmlns="http://www.w3.org/2000/svg" xmlns:xlink="http://www.w3.org/1999/xlink">
    <!-- Generator: Sketch 59.1 (86144) - https://sketch.com -->
    <title>add</title>
    <desc>Created with Sketch.</desc>
    <g id="注册登记（pc)" stroke="none" stroke-width="1" fill="none" fill-rule="evenodd">
        <g id="预登记（邀请）" transform="translate(-1247.000000, -777.000000)" fill-rule="nonzero">
            <g id="add" transform="translate(1245.000000, 775.000000)">
                <rect id="矩形" fill="#000000" opacity="0" x="0" y="0" width="30" height="30"></rect>
                <path d="M15,2.49999999 C21.90375,2.49999999 27.5,8.09625 27.5,15 C27.5,21.90375 21.90375,27.5 15,27.5 C8.09625,27.5 2.49999999,21.90375 2.49999999,15 C2.49999999,8.09625 8.09625,2.49999999 15,2.49999999 Z M15,4.37499999 C9.13187499,4.37499999 4.37499999,9.13187499 4.37499999,15 C4.37499999,20.868125 9.13187499,25.625 15,25.625 C20.868125,25.625 25.625,20.868125 25.625,15 C25.625,9.13187499 20.868125,4.37499999 15,4.37499999 Z M15,8.12499999 C15.517767,8.12499999 15.9375,8.54473304 15.9375,9.06249999 L15.9375,14.061875 L20.9375,14.0625 C21.455267,14.0625 21.875,14.482233 21.875,15 C21.875,15.517767 21.455267,15.9375 20.9375,15.9375 L15.936875,15.936875 L15.9375,20.9375 C15.9375,21.455267 15.517767,21.875 15,21.875 C14.482233,21.875 14.0625,21.455267 14.0625,20.9375 L14.061875,15.936875 L9.06249999,15.9375 C8.54473304,15.9375 8.12499999,15.517767 8.12499999,15 C8.12499999,14.482233 8.54473304,14.0625 9.06249999,14.0625 L14.0625,14.061875 L14.0625,9.06249999 C14.0625,8.54473304 14.482233,8.12499999 15,8.12499999 Z" id="形状" fill="#3371FF"></path>
            </g>
        </g>
    </g>
</svg>