<?xml version="1.0" encoding="UTF-8"?>
<svg width="30px" height="30px" viewBox="0 0 30 30" version="1.1" xmlns="http://www.w3.org/2000/svg" xmlns:xlink="http://www.w3.org/1999/xlink">
    <!-- Generator: Sketch 59.1 (86144) - https://sketch.com -->
    <title>facebook</title>
    <desc>Created with Sketch.</desc>
    <g id="注册登记（pc)" stroke="none" stroke-width="1" fill="none" fill-rule="evenodd">
        <g id="预登记（step1）" transform="translate(-533.000000, -1229.000000)" fill="#3371FF" fill-rule="nonzero">
            <g id="facebook" transform="translate(533.000000, 1229.000000)">
                <path d="M28.293,0.02240625 C28.728,0.02240625 29.121,0.18440625 29.472,0.51140625 C29.823,0.83540625 30,1.21640625 30,1.64840625 L30,28.3154062 C30,28.7504062 29.823,29.1284063 29.472,29.4524063 C29.118,29.7794063 28.725,29.9414062 28.293,29.9414062 L20.652,29.9414062 L20.652,18.3974062 L24.555,18.3974062 L25.125,13.8434062 L20.655,13.8434062 L20.655,10.8704063 C20.655,9.38540625 21.414,8.64140625 22.932,8.64140625 L25.29,8.64140625 L25.29,4.73240625 C24.477,4.57340625 23.313,4.49240625 21.795,4.49240625 C20.061,4.49240625 18.666,5.02040625 17.607,6.07640625 C16.545,7.13540625 16.017,8.61440625 16.017,10.5104063 L16.017,13.8434063 L12.114,13.8434062 L12.114,18.3974062 L16.017,18.3974062 L16.017,29.9414062 L1.626,29.9414062 C1.191,29.9414062 0.813,29.7794063 0.489,29.4524063 C0.162,29.1284063 0,28.7504063 0,28.3154062 L0,1.64840625 C0,1.21640625 0.162,0.83540625 0.489,0.51140625 C0.813,0.18740625 1.194,0.02240625 1.626,0.02240625 L28.293,0.02240625 Z" id="路径"></path>
            </g>
        </g>
    </g>
</svg>