<?xml version="1.0" encoding="UTF-8"?>
<svg width="28px" height="28px" viewBox="0 0 28 28" version="1.1" xmlns="http://www.w3.org/2000/svg" xmlns:xlink="http://www.w3.org/1999/xlink">
    <!-- Generator: Sketch 59.1 (86144) - https://sketch.com -->
    <title>邀约失败</title>
    <desc>Created with Sketch.</desc>
    <g id="注册登记（pc)" stroke="none" stroke-width="1" fill="none" fill-rule="evenodd">
        <g id="预登记（邀请2）" transform="translate(-1172.000000, -570.000000)">
            <g id="邀约失败" transform="translate(1172.000000, 570.000000)">
                <circle id="Oval-Copy-2" fill="#FF6D3F" cx="14" cy="14" r="14"></circle>
                <path d="M19.8333333,8.44411415 C19.8333333,8.29151803 19.7122261,8.16666667 19.5642061,8.16666667 L17.3439062,8.17707095 L14,12.2867618 L10.6594579,8.18053904 L8.43579393,8.17013476 C8.28777393,8.17013476 8.16666667,8.29151803 8.16666667,8.44758224 C8.16666667,8.51347602 8.1902153,8.5759017 8.23058439,8.62792311 L12.6072664,14.0034681 L8.23058439,19.375545 C8.1902153,19.4275664 8.16666667,19.4899921 8.16666667,19.5558859 C8.16666667,19.708482 8.28777393,19.8333333 8.43579393,19.8333333 L10.6594579,19.8229291 L14,15.7132382 L17.3405421,19.819461 L19.560842,19.8298652 C19.708862,19.8298652 19.8299692,19.708482 19.8299692,19.5524178 C19.8299692,19.486524 19.8064206,19.4240983 19.7660515,19.3720769 L15.3960977,14 L19.7727797,8.62445501 C19.8131488,8.5759017 19.8333333,8.51000793 19.8333333,8.44411415 Z" id="路径" fill="#FFFFFF" fill-rule="nonzero"></path>
            </g>
        </g>
    </g>
</svg>