<?xml version="1.0" encoding="UTF-8"?>
<svg width="25px" height="21px" viewBox="0 0 25 21" version="1.1" xmlns="http://www.w3.org/2000/svg" xmlns:xlink="http://www.w3.org/1999/xlink">
    <!-- Generator: Sketch 59.1 (86144) - https://sketch.com -->
    <title>换一换</title>
    <desc>Created with Sketch.</desc>
    <defs>
        <polygon id="path-1" points="0 0 24.6645691 0 24.6645691 20.3580492 0 20.3580492"></polygon>
    </defs>
    <g id="注册登记（pc)" stroke="none" stroke-width="1" fill="none" fill-rule="evenodd">
        <g id="预登记（新客户票证页）" transform="translate(-504.000000, -1634.000000)">
            <g id="换一换" transform="translate(504.000000, 1634.000000)">
                <mask id="mask-2" fill="white">
                    <use xlink:href="#path-1"></use>
                </mask>
                <g id="Clip-2"></g>
                <path d="M18.0382789,4.30711015 C16.8241302,3.348753 15.4325263,2.67865314 14.0046442,2.36616943 C11.6073371,1.8172016 9.2761914,2.25721211 7.44039573,3.60503637 C5.61431522,4.94572798 4.49744114,7.02612424 4.29551345,9.46302985 C4.27030324,9.76665924 4.25985022,10.0772983 4.26452333,10.3867076 L4.26759775,10.5966288 L6.4171069,10.6303244 L3.27775857,15.2000143 L-6.1488333e-05,10.4614774 L2.26209428,10.4489338 L2.22716891,9.90119571 C2.24192611,6.56287114 3.66574995,3.6090946 6.13364568,1.7971564 C8.1357058,0.327216313 10.685258,-0.270696237 13.3126545,0.113482867 C15.5724737,0.444044145 17.4205671,1.17759996 19.2620197,2.78982405 L18.0382789,4.30711015 Z M11.2623875,20.2445171 C9.0026913,19.9139559 7.11819687,19.1508856 5.27662129,17.5387845 L6.54647835,16.0438802 C7.75792148,17.0002697 9.14571316,17.6725831 10.5703978,17.9917076 C12.967705,18.5409214 15.2989736,18.1009109 17.1346463,16.7530866 C18.9608498,15.412395 20.0777239,13.3318758 20.2796516,10.8949701 C20.3049848,10.5922016 20.3153148,10.2814396 20.3106417,9.97129241 L20.3075673,9.76137124 L17.8202412,9.69496384 L21.5065898,5.13732563 L24.6646305,9.83724785 L22.3620155,9.89787534 L22.3479961,10.4568043 C22.3332389,13.7951289 20.9094151,16.7490284 18.4413964,18.5609666 C16.4394592,20.0307837 13.889907,20.6286962 11.2623875,20.2445171 L11.2623875,20.2445171 Z" id="Fill-1" fill="#3371FF" mask="url(#mask-2)"></path>
            </g>
        </g>
    </g>
</svg>