<?xml version="1.0" encoding="UTF-8"?>
<svg width="30px" height="30px" viewBox="0 0 30 30" version="1.1" xmlns="http://www.w3.org/2000/svg" xmlns:xlink="http://www.w3.org/1999/xlink">
    <!-- Generator: Sketch 59.1 (86144) - https://sketch.com -->
    <title>linkedin</title>
    <desc>Created with Sketch.</desc>
    <g id="注册登记（pc)" stroke="none" stroke-width="1" fill="none" fill-rule="evenodd">
        <g id="预登记（step1）" transform="translate(-799.000000, -1229.000000)" fill="#3371FF" fill-rule="nonzero">
            <g id="linkedin" transform="translate(799.000000, 1229.000000)">
                <path d="M25.56,25.5645 L21.117,25.5645 L21.117,18.6045 C21.117,16.944 21.0825,14.808 18.801,14.808 C16.485,14.808 16.131,16.614 16.131,18.4815 L16.131,25.5645 L11.6895,25.5645 L11.6895,11.25 L15.9555,11.25 L15.9555,13.2 L16.014,13.2 C16.6095,12.075 18.06,10.89 20.226,10.89 C24.7275,10.89 25.56,13.851 25.56,17.7075 L25.56,25.5645 L25.56,25.5645 Z M6.6705,9.291 C5.2395,9.291 4.0905,8.1345 4.0905,6.711 C4.0905,5.2875 5.241,4.131 6.6705,4.131 C8.09539465,4.131 9.2505,5.28610535 9.2505,6.711 C9.2505,8.13589465 8.09539465,9.291 6.6705,9.291 Z M8.8965,25.566 L4.4415,25.566 L4.4415,11.25 L8.8965,11.25 L8.8965,25.5645 L8.8965,25.566 Z M27.7815,0 L2.214,0 C0.99,0 0,0.9675 0,2.16 L0,27.84 C0,29.0325 0.99,30 2.214,30 L27.777,30 C28.9995,30 30,29.034 30,27.84 L30,2.16 C30,0.969 28.9995,0 27.777,0 L27.7815,0 Z" id="形状"></path>
            </g>
        </g>
    </g>
</svg>