<?xml version="1.0" encoding="UTF-8"?>
<svg width="310px" height="58px" viewBox="0 0 310 58" version="1.1" xmlns="http://www.w3.org/2000/svg" xmlns:xlink="http://www.w3.org/1999/xlink">
    <!-- Generator: Sketch 59.1 (86144) - https://sketch.com -->
    <title>pc-logo</title>
    <desc>Created with Sketch.</desc>
    <defs>
        <polygon id="path-1" points="0.172048847 0.227522441 5.59647511 0.227522441 5.59647511 5.36639341 0.172048847 5.36639341"></polygon>
        <polygon id="path-3" points="0 0.0961274918 4.14538648 0.0961274918 4.14538648 5.31599396 0 5.31599396"></polygon>
        <polygon id="path-5" points="0.0978465274 0.13894805 22.4011578 0.13894805 22.4011578 29.062885 0.0978465274 29.062885"></polygon>
    </defs>
    <g id="pc" stroke="none" stroke-width="1" fill="none" fill-rule="evenodd">
        <g id="首页1" transform="translate(-50.000000, -21.000000)">
            <g id="pc-logo" transform="translate(50.000000, 21.000000)">
                <g id="编组-14">
                    <g id="Group-32-Copy-6">
                        <path d="M30.2155128,20.7292471 C30.2155128,22.8635525 28.4852413,24.594022 26.3506102,24.594022 C24.2162344,24.594022 22.485963,22.8635525 22.485963,20.7292471 C22.485963,18.5949418 24.2162344,16.8644722 26.3506102,16.8644722 C28.4852413,16.8644722 30.2155128,18.5949418 30.2155128,20.7292471" id="Fill-1" fill="#FFFFFF"></path>
                        <path d="M40.7558079,14.7564132 C40.7558079,16.6970579 39.1827506,18.2698449 37.2423762,18.2698449 C35.3020018,18.2698449 33.7289445,16.6970579 33.7289445,14.7564132 C33.7289445,12.8160389 35.3020018,11.2429815 37.2423762,11.2429815 C39.1827506,11.2429815 40.7558079,12.8160389 40.7558079,14.7564132" id="Fill-3" fill="#F0C01D"></path>
                        <path d="M25.2967084,7.72954978 C25.2967084,9.67019442 23.723651,11.2429815 21.7832766,11.2429815 C19.8429023,11.2429815 18.2698449,9.67019442 18.2698449,7.72954978 C18.2698449,5.78917542 19.8429023,4.21611806 21.7832766,4.21611806 C23.723651,4.21611806 25.2967084,5.78917542 25.2967084,7.72954978" id="Fill-5" fill="#1E95D4"></path>
                        <path d="M16.8644722,24.594022 C16.8644722,26.5345474 15.2915659,28.1074537 13.3510405,28.1074537 C11.4105152,28.1074537 9.83760881,26.5345474 9.83760881,24.594022 C9.83760881,22.6534967 11.4105152,21.0805903 13.3510405,21.0805903 C15.2915659,21.0805903 16.8644722,22.6534967 16.8644722,24.594022" id="Fill-7" fill="#E68914"></path>
                        <path d="M9.83760881,11.9456678 C9.83760881,13.1101361 8.89372777,14.0537269 7.72954978,14.0537269 C6.56537178,14.0537269 5.62149075,13.1101361 5.62149075,11.9456678 C5.62149075,10.7811996 6.56537178,9.83760881 7.72954978,9.83760881 C8.89372777,9.83760881 9.83760881,10.7811996 9.83760881,11.9456678" id="Fill-9" fill="#0A8B41"></path>
                        <g id="Group-13" transform="translate(9.837609, 0.000000)">
                            <mask id="mask-2" fill="white">
                                <use xlink:href="#path-1"></use>
                            </mask>
                            <g id="Clip-12"></g>
                            <path d="M5.59647511,2.79707628 C5.59647511,4.21605889 4.38223311,5.36639341 2.88441813,5.36639341 C1.38660315,5.36639341 0.172048847,4.21605889 0.172048847,2.79707628 C0.172048847,1.3777978 1.38660315,0.227463268 2.88441813,0.227463268 C4.38223311,0.227463268 5.59647511,1.3777978 5.59647511,2.79707628" id="Fill-11" fill="#0F9697" mask="url(#mask-2)"></path>
                        </g>
                        <g id="Group-16" transform="translate(0.000000, 18.972531)">
                            <mask id="mask-4" fill="white">
                                <use xlink:href="#path-3"></use>
                            </mask>
                            <g id="Clip-15"></g>
                            <path d="M4.14538648,2.70606072 C4.14538648,4.1476608 3.21734449,5.31599396 2.07279244,5.31599396 C0.927992386,5.31599396 -4.96013889e-05,4.1476608 -4.96013889e-05,2.70606072 C-4.96013889e-05,1.26477296 0.927992386,0.0961274918 2.07279244,0.0961274918 C3.21734449,0.0961274918 4.14538648,1.26477296 4.14538648,2.70606072" id="Fill-14" fill="#DA5412" mask="url(#mask-4)"></path>
                        </g>
                        <path d="M16.8644722,14.0538717 C16.8644722,15.6060766 15.6061414,16.8644722 14.0537269,16.8644722 C12.5013123,16.8644722 11.2429815,15.6060766 11.2429815,14.0538717 C11.2429815,12.5013772 12.5013123,11.2429815 14.0537269,11.2429815 C15.6061414,11.2429815 16.8644722,12.5013772 16.8644722,14.0538717" id="Fill-17" fill="#2EAB7F"></path>
                        <path d="M49.8907304,9.83760881 C49.8907304,11.390119 48.6323174,12.6483542 47.079985,12.6483542 C45.5276526,12.6483542 44.2692396,11.390119 44.2692396,9.83760881 C44.2692396,8.28509859 45.5276526,7.02686343 47.079985,7.02686343 C48.6323174,7.02686343 49.8907304,8.28509859 49.8907304,9.83760881" id="Fill-19" fill="#EDAF19"></path>
                        <path d="M35.8370035,7.72954978 C35.8370035,9.67003283 34.2640548,11.2429815 32.3235718,11.2429815 C30.3830887,11.2429815 28.8101401,9.67003283 28.8101401,7.72954978 C28.8101401,5.78906673 30.3830887,4.21611806 32.3235718,4.21611806 C34.2640548,4.21611806 35.8370035,5.78906673 35.8370035,7.72954978" id="Fill-21" fill="#8BB928"></path>
                        <polygon id="Fill-23" fill="#FFFFFF" points="29.1853232 55.4455049 29.1853232 30.9849153 29.1853232 30.2357737 29.1853232 30.2155128 16.1617859 30.2155128 16.1617859 30.9849153 22.1923414 30.9849153 22.1923414 55.4455049 16.1617859 55.4455049 16.1617859 56.2149075 35.1343172 56.2149075 35.1343172 55.4455049"></polygon>
                        <g id="Group-27" transform="translate(37.945063, 28.107454)">
                            <mask id="mask-6" fill="white">
                                <use xlink:href="#path-5"></use>
                            </mask>
                            <g id="Clip-26"></g>
                            <path d="M18.3723081,13.4968838 C17.2683777,12.946822 9.09358957,10.1418537 8.27888077,9.8085637 C7.46417196,9.47527373 3.20976259,8.14211387 4.04701167,5.18703172 C4.88426075,2.23168294 6.85314036,1.40965657 8.46001769,1.12089415 C10.066895,0.83186509 12.895564,0.787604183 14.479901,1.76507699 C16.0639665,2.74281643 17.1277047,3.49818481 18.1007385,4.52045179 C19.0737724,5.54245214 19.9563736,8.1165172 19.9563736,8.76256647 L20.9715008,8.76256647 L20.9715008,1.09849706 L19.9563736,1.09849706 C19.9563736,1.09849706 19.288584,3.23128621 18.9493935,3.40939637 C18.8277304,3.47312141 18.4627408,3.65389788 17.8291689,3.00944841 C17.1955971,2.36499893 15.0909326,0.565233118 12.8051313,0.298601146 C10.51933,0.0319691735 7.53206436,-0.0568192733 5.0428574,1.32086813 C2.55337886,2.6982889 0.516606853,5.03131865 0.426174175,8.3642183 C0.335469929,11.697118 1.28596353,14.4079652 5.94799888,16.1189426 C10.6100342,17.8296533 13.0088085,18.5852883 14.9551478,19.4073147 C16.9012156,20.2293411 18.7796625,21.784872 18.7571223,23.0956348 C18.7343104,24.4066642 18.0103059,26.7842215 15.4303946,27.6283783 C12.8504834,28.4728018 9.29726677,28.5839873 5.993351,26.8284824 C2.81734451,25.1412353 1.23137804,21.2793378 1.1129737,20.1138894 L1.1129737,18.6295492 L0.0978465274,18.6295492 L0.0978465274,27.6950363 L1.1129737,27.6950363 L1.1129737,27.6753055 C1.1933583,27.477198 1.97439247,25.5553147 2.14602446,25.4286645 C2.32716138,25.2953485 2.53083859,25.1620326 2.80240819,25.5177196 C3.07397779,25.87314 4.974965,27.6729058 7.01173701,28.2061698 C9.04850902,28.7394337 10.2931125,29.1393817 12.7597792,29.0505932 C15.2267174,28.9615382 18.1007385,28.4282742 19.9791855,26.1842995 C21.8573608,23.9400582 22.4233119,22.118162 22.4005,19.1185523 C22.3779598,16.1189426 19.8884812,14.2525188 18.3723081,13.4968838" id="Fill-25" fill="#FFFFFF" mask="url(#mask-6)"></path>
                        </g>
                        <polygon id="Fill-28" fill="#FFFFFF" points="81.5116158 55.7012174 75.4092642 55.7012174 75.4092642 17.0648072 75.4150624 17.0648072 75.4150624 16.1617859 62.5390846 16.1617859 62.5390846 17.0648072 68.3059308 17.0648072 68.3059308 55.7012174 62.5390846 55.7012174 62.5390846 56.2136174 68.3059308 56.2136174 68.3059308 56.2149075 75.4092642 56.2149075 75.4092642 56.2136174 81.5116158 56.2136174"></polygon>
                        <path d="M91.2628451,35.3609902 C91.4276227,33.9361884 92.0748691,28.9809868 96.6016393,28.9493821 C101.248368,28.9170002 101.7427,34.1952433 101.709745,35.3286083 C101.7427,36.4943553 101.709745,41.1897248 101.709745,41.1897248 L91.1639786,41.1897248 C91.1639786,41.1897248 91.1233774,36.5668906 91.2628451,35.3609902 L91.2628451,35.3609902 Z M108.795182,48.4108794 C108.795182,48.4108794 107.839472,51.0014282 104.675742,53.0414853 C101.512012,55.0815424 96.8652835,55.7291796 94.7231747,54.4015234 C92.3640868,52.9394177 90.8344234,52.3614662 90.9662455,41.7725983 L109.553159,41.7725983 C109.553159,41.7725983 110.080447,28.1074537 96.832328,28.1074537 C91.2702272,28.1074537 88.3957149,30.4389476 86.4183837,32.867587 C83.6843938,36.2254563 83.6501201,40.4744743 83.6501201,40.9630518 C83.6501201,41.8049802 83.1887428,47.6984785 85.8581399,51.0985737 C88.527537,54.4986689 92.1855997,56.2149075 97.5903049,56.2149075 C102.99501,56.2149075 107.575827,52.8148123 109.61907,48.961371 L108.795182,48.4108794 Z" id="Fill-30" fill="#FFFFFF"></path>
                    </g>
                    <path d="M123.090669,23.8439296 L129.211245,23.8439296 L129.211245,24.9073024 L126.75065,24.9073024 L126.75065,26.4281728 L128.827936,26.4281728 L128.827936,27.466816 L126.75065,27.466816 L126.75065,29.1855232 L128.01186,29.1855232 C127.797535,28.7156585 127.562606,28.2870163 127.307066,27.899584 L128.234426,27.6028288 C128.531183,28.0149909 128.778476,28.443633 128.976314,28.888768 L128.308615,29.1855232 L129.569824,29.1855232 L129.569824,30.248896 L122.75682,30.248896 L122.75682,29.1855232 L125.563629,29.1855232 L125.563629,27.466816 L123.486343,27.466816 L123.486343,26.4281728 L125.563629,26.4281728 L125.563629,24.9073024 L123.090669,24.9073024 L123.090669,23.8439296 Z M131.350356,21.8779264 L131.350356,32.7960448 L130.163335,32.7960448 L130.163335,32.3261824 L122.150944,32.3261824 L122.150944,32.7960448 L120.963924,32.7960448 L120.963924,21.8779264 L131.350356,21.8779264 Z M122.150944,31.2257152 L130.163335,31.2257152 L130.163335,22.9907584 L122.150944,22.9907584 L122.150944,31.2257152 Z M139.949512,27.3184384 C139.553836,29.0495191 138.985061,30.5456449 138.24317,31.8068608 L137.278715,31.1886208 C138.02885,29.8944319 138.564653,28.5260744 138.886139,27.0835072 L139.949512,27.3184384 Z M143.485845,26.9104 C144.005169,28.3035078 144.462662,29.7790258 144.858338,31.3369984 L143.819694,31.794496 C143.374559,29.9974694 142.921188,28.4848573 142.459566,27.2566144 L143.485845,26.9104 Z M139.393096,32.7589504 L139.1458,31.6461184 C139.582692,31.7038211 139.941267,31.732672 140.221538,31.732672 C140.518294,31.732672 140.66667,31.5636881 140.66667,31.2257152 L140.66667,26.1561472 L137.699118,26.1561472 L137.699118,25.0185856 L144.759419,25.0185856 L144.759419,26.1561472 L141.828962,26.1561472 L141.828962,31.5101056 C141.828962,32.342673 141.425049,32.7589504 140.617211,32.7589504 L139.393096,32.7589504 Z M138.453371,22.0510336 L144.11645,22.0510336 L144.11645,23.1762304 L138.453371,23.1762304 L138.453371,22.0510336 Z M133.816571,21.8284672 L137.773307,21.8284672 L137.773307,22.7558272 C137.410605,23.7944756 136.977841,24.911418 136.475003,26.106688 C137.183922,27.236012 137.563105,28.2251862 137.612565,29.07424 C137.612565,29.6430236 137.49304,30.0551795 137.253986,30.31072 C136.907769,30.6239632 136.310143,30.784704 135.46109,30.7929472 L135.10251,29.6553856 L135.395309,29.694953 C135.524892,29.7097908 135.62925,29.7172096 135.708386,29.7172096 C136.021629,29.6924799 136.223585,29.6347781 136.314261,29.5441024 C136.421423,29.4534267 136.475003,29.2968075 136.475003,29.07424 C136.475003,28.2499159 136.091698,27.3184436 135.325077,26.2797952 C135.869131,25.076282 136.306016,23.9634611 136.635746,22.9412992 L134.954133,22.9412992 L134.954133,32.8331392 L133.816571,32.8331392 L133.816571,21.8284672 Z M148.152995,23.2504192 C147.897454,23.6131218 147.625431,23.9263603 147.336918,24.190144 L149.117449,24.190144 C149.166909,23.8769008 149.204003,23.5636624 149.228732,23.2504192 L148.152995,23.2504192 Z M148.795964,25.2658816 L146.496112,25.2658816 L146.496112,24.190144 L147.052528,24.190144 L146.471382,23.4606208 C147.056652,22.9412966 147.555361,22.2200238 147.967523,21.2967808 L149.018531,21.5193472 C148.960828,21.684212 148.866032,21.9150193 148.73414,22.211776 L152.122096,22.211776 L152.122096,23.2504192 L150.353929,23.2504192 L150.30447,23.7944708 C150.287984,23.9510912 150.271497,24.0829819 150.255011,24.190144 L152.46831,24.190144 L152.46831,25.2658816 L150.007715,25.2658816 L149.958256,25.4389888 C150.848526,25.8923671 151.623379,26.3622248 152.282838,26.848576 L151.553315,27.590464 L156.276668,27.590464 L156.276668,32.845504 L155.089648,32.845504 L155.089648,32.3632768 L149.253462,32.3632768 L149.253462,32.845504 L148.078806,32.845504 L148.078806,27.7635712 C147.674887,28.0108684 147.332798,28.2004601 147.052528,28.332352 L146.26118,27.3802624 C147.538883,26.8114788 148.375559,26.1231784 148.771235,25.3153408 L148.795964,25.2658816 Z M149.253462,31.3246336 L155.089648,31.3246336 L155.089648,30.5085568 L149.253462,30.5085568 L149.253462,31.3246336 Z M149.253462,29.4946432 L155.089648,29.4946432 L155.089648,28.6291072 L149.253462,28.6291072 L149.253462,29.4946432 Z M151.343113,27.590464 C150.856762,27.1535722 150.267379,26.7208085 149.574947,26.29216 C149.27819,26.7537815 148.861913,27.1865452 148.326102,27.590464 L151.343113,27.590464 Z M152.851619,22.2241408 L157.179299,22.2241408 L157.179299,26.8980352 L152.851619,26.8980352 L152.851619,22.2241408 Z M156.029372,25.8717568 L156.029372,23.262784 L154.001545,23.262784 L154.001545,25.8717568 L156.029372,25.8717568 Z M169.21587,29.6801152 L165.110756,29.6801152 C165.60535,30.0757908 166.00102,30.4426095 166.297777,30.7805824 L165.4817,31.3369984 C165.160214,30.9495661 164.72745,30.5291671 164.183396,30.0757888 L164.826366,29.6801152 L160.387402,29.6801152 L160.387402,28.8393088 L168.090673,28.8393088 L168.090673,28.3199872 L160.956183,28.3199872 L160.956183,27.5162752 L168.090673,27.5162752 L168.090673,27.0216832 L160.53578,27.0216832 L160.53578,26.1808768 L161.883543,26.1808768 L161.883543,25.5626368 L159.756798,25.5626368 L159.756798,24.74656 L161.883543,24.74656 L161.883543,24.2148736 L160.214295,24.2148736 L160.214295,23.3987968 L161.883543,23.3987968 L161.883543,22.8794752 L159.991729,22.8794752 L159.991729,22.0633984 L161.883543,22.0633984 L161.883543,21.4575232 L163.021105,21.4575232 L163.021105,22.0633984 L164.715082,22.0633984 L164.715082,22.8794752 L163.021105,22.8794752 L163.021105,23.3987968 L164.52961,23.3987968 L164.52961,24.2148736 L163.021105,24.2148736 L163.021105,24.74656 L164.702718,24.74656 L164.702718,25.5626368 L163.021105,25.5626368 L163.021105,26.1808768 L166.928382,26.1808768 L166.928382,25.5626368 L165.086026,25.5626368 L165.086026,24.74656 L166.928382,24.74656 L166.928382,24.2148736 L165.345687,24.2148736 L165.345687,23.3987968 L166.928382,23.3987968 L166.928382,22.8794752 L165.14785,22.8794752 L165.14785,22.0633984 L166.928382,22.0633984 L166.928382,21.4575232 L168.065943,21.4575232 L168.065943,22.0633984 L169.945393,22.0633984 L169.945393,22.8794752 L168.065943,22.8794752 L168.065943,23.3987968 L169.685732,23.3987968 L169.685732,24.2148736 L168.065943,24.2148736 L168.065943,24.74656 L170.1185,24.74656 L170.1185,25.5626368 L168.065943,25.5626368 L168.065943,26.1808768 L169.21587,26.1808768 L169.21587,29.6801152 Z M161.46314,30.3478144 C161.207599,31.221598 160.853145,31.9840863 160.399767,32.6353024 L159.460042,32.041792 C159.913421,31.4400354 160.243145,30.8011938 160.449226,30.125248 L161.46314,30.3478144 Z M163.34259,32.598208 C162.542995,32.598208 162.143204,32.2313893 162.143204,31.4977408 L162.143204,30.1005184 L163.280766,30.1005184 L163.280766,31.2504448 C163.280766,31.4812556 163.404412,31.5966592 163.65171,31.5966592 L166.458519,31.5966592 C166.648114,31.5966592 166.79649,31.5513221 166.903652,31.4606464 C167.019057,31.345241 167.101488,30.9990301 167.150948,30.4220032 L168.214321,30.7558528 C168.115402,31.6626093 167.946418,32.198412 167.707364,32.3632768 C167.460067,32.5198984 167.117977,32.598208 166.681086,32.598208 L163.34259,32.598208 Z M169.116951,29.9150464 C169.82587,30.6569381 170.365794,31.2999013 170.73674,31.8439552 L169.871204,32.4498304 C169.483772,31.856317 168.95209,31.184503 168.276145,30.434368 L169.116951,29.9150464 Z M173.722277,21.8284672 L182.031423,21.8284672 L182.031423,27.0587776 L173.722277,27.0587776 L173.722277,21.8284672 Z M180.881496,25.9706752 L180.881496,24.9814912 L174.884568,24.9814912 L174.884568,25.9706752 L180.881496,25.9706752 Z M174.884568,23.9304832 L180.881496,23.9304832 L180.881496,22.9042048 L174.884568,22.9042048 L174.884568,23.9304832 Z M175.947941,27.5533696 L177.122597,27.5533696 L177.122597,31.423552 L178.569279,31.423552 L178.569279,27.5533696 L179.756299,27.5533696 L179.756299,31.423552 L183.342091,31.423552 L183.342091,32.5611136 L172.386879,32.5611136 L172.386879,31.423552 L175.947941,31.423552 L175.947941,27.5533696 Z M182.896959,28.208704 C182.435337,29.2803254 181.895413,30.199433 181.27717,30.9660544 L180.362175,30.31072 C180.930958,29.6018013 181.429667,28.7362739 181.858315,27.714112 L182.896959,28.208704 Z M173.821195,27.899584 C174.447682,28.7980973 174.934026,29.5894366 175.280242,30.2736256 L174.352882,30.92896 C173.96545,30.178825 173.470862,29.3709995 172.869106,28.5054592 L173.821195,27.899584 Z M188.516198,32.6723968 L188.268902,31.5348352 C188.821199,31.5760514 189.2993,31.5966592 189.703219,31.5966592 C190.049435,31.5966592 190.222541,31.4359184 190.222541,31.114432 L190.222541,26.2674304 L185.486822,26.2674304 L185.486822,25.1051392 L196.095821,25.1051392 L196.095821,26.2674304 L191.421926,26.2674304 L191.421926,31.4111872 C191.421926,32.2519978 190.985041,32.6723968 190.111257,32.6723968 L188.516198,32.6723968 Z M188.429645,27.7264768 C187.926807,29.4245845 187.213777,30.895981 186.290534,32.1407104 L185.264256,31.5101056 C186.203985,30.2488897 186.871678,28.90114 187.267353,27.466816 L188.429645,27.7264768 Z M194.105088,27.3184384 C194.937655,28.6456002 195.658928,30.0592949 196.268928,31.5595648 L195.19319,32.041792 C194.533731,30.3849005 193.81658,28.9299903 193.041715,27.6770176 L194.105088,27.3184384 Z M186.624384,21.9892096 L194.995353,21.9892096 L194.995353,23.1267712 L186.624384,23.1267712 L186.624384,21.9892096 Z M201.072091,23.0031232 L199.044263,23.0031232 L199.044263,21.8531968 L206.611521,21.8531968 L206.611521,22.6198144 C206.413683,23.5018412 206.186998,24.3673686 205.931457,25.2164224 L208.392052,25.2164224 L208.392052,25.9088512 C208.02935,27.5574994 207.287469,28.9505863 206.166388,30.0881536 C207.056658,30.7146399 208.095291,31.283415 209.282318,31.794496 L208.503335,32.845504 C207.21739,32.2519906 206.13342,31.6049059 205.251393,30.9042304 C204.171528,31.7367978 202.856751,32.4044903 201.307022,32.907328 L200.626958,31.8192256 C202.077768,31.3328744 203.293628,30.747613 204.274574,30.063424 C203.301871,29.107208 202.547626,28.0562105 202.011815,26.9104 C201.56668,29.4658048 200.540412,31.4276668 198.93298,32.7960448 L198.03035,32.0046976 C200.016971,30.3395629 201.030874,27.6729143 201.072091,24.004672 L201.072091,23.0031232 Z M205.189569,29.321536 C206.129299,28.4477524 206.784626,27.4379705 207.155572,26.29216 L204.472411,26.29216 L204.602585,25.8882424 C204.823549,25.1669626 205.064546,24.2052625 205.325582,23.0031232 L202.259111,23.0031232 L202.259111,24.3261568 L202.246747,24.6476416 C202.691882,26.4446682 203.672813,28.0026174 205.189569,29.321536 Z M214.815004,32.78368 L214.542978,31.6337536 C214.988113,31.683213 215.408512,31.7079424 215.804188,31.7079424 C216.067972,31.7079424 216.199861,31.571931 216.199861,31.299904 L216.199861,28.5672832 L214.349435,28.6690628 C213.759809,28.6993787 213.107166,28.7313976 212.391503,28.76512 L212.070018,27.7388416 C212.432721,27.7058686 212.770689,27.6358021 213.083932,27.52864 C214.015418,27.1247212 215.016957,26.5270952 216.088578,25.735744 L215.108477,25.8084189 C214.316962,25.8647754 213.588537,25.9106174 212.923189,25.9459456 L212.675893,24.9073024 C212.94792,24.8825727 213.2117,24.8125062 213.467241,24.6971008 C213.961835,24.4498036 214.55534,23.9428518 215.247772,23.1762304 C214.159664,23.2174466 213.129274,23.2380544 212.156572,23.2380544 L211.810357,22.2241408 C215.305492,22.2241408 218.293622,21.9850904 220.774837,21.5069824 L221.355983,22.4838016 C220.078281,22.7640718 218.528575,22.9660282 216.706818,23.0896768 C216.063845,23.8315685 215.396153,24.4498023 214.703721,24.9443968 L216.703109,24.8240873 C216.928147,24.8094969 217.127221,24.7960193 217.300329,24.7836544 C217.869112,24.3137897 218.409036,23.8439319 218.920117,23.3740672 L220.00822,23.9057536 C218.071058,25.5873748 216.364733,26.8444502 214.889193,27.6770176 C216.529598,27.5698555 218.025723,27.4379656 219.377615,27.281344 L218.836592,26.5788212 C218.721524,26.4324628 218.621596,26.3080581 218.536809,26.2056064 L219.402345,25.6615552 C220.424507,26.8485819 221.211724,27.8913363 221.764021,28.7898496 L220.824297,29.445184 C220.618216,29.0824814 220.362679,28.6744471 220.057679,28.2210688 C219.233355,28.3199877 218.338977,28.4065404 217.374517,28.4807296 L217.374517,31.5842944 C217.374517,32.3838888 216.987091,32.78368 216.212226,32.78368 L214.815004,32.78368 Z M219.043765,29.0495104 C220.263765,29.9315372 221.294155,30.8217939 222.134965,31.7203072 L221.294159,32.5611136 C220.58524,31.720303 219.575458,30.8053169 218.264783,29.816128 L219.043765,29.0495104 Z M214.938652,29.877952 C214.089598,30.8918707 213.055087,31.7697627 211.835087,32.5116544 L211.093199,31.5472 C212.296712,30.8465245 213.302373,30.0428205 214.11021,29.136064 L214.938652,29.877952 Z M228.112784,30.92896 C226.95873,31.5142301 225.676926,31.9758447 224.267331,32.3138176 L224.131319,31.1391616 C225.656318,30.8011887 226.98346,30.3560604 228.112784,29.8037632 L228.112784,30.92896 Z M227.086506,21.8037376 C226.484749,23.287521 225.891245,24.4827731 225.305975,25.3895296 C225.72638,25.3400702 226.146779,25.2782468 226.567184,25.2040576 C226.806238,24.7589226 227.024681,24.3302805 227.222519,23.9181184 L228.273527,24.313792 C227.276094,26.2097375 226.44354,27.5945812 225.775837,28.4683648 C226.567188,28.2540405 227.346163,27.9778961 228.112784,27.6399232 L228.112784,28.7156608 C226.793866,29.267958 225.524425,29.6430198 224.304426,29.8408576 L223.995306,28.7527552 C224.20963,28.6538363 224.386857,28.5384327 224.526992,28.4065408 C224.914425,27.9943787 225.396647,27.2895922 225.973674,26.29216 L225.06524,26.4354906 C224.801795,26.4753607 224.511096,26.518259 224.193143,26.5641856 L223.896387,25.488448 C224.077739,25.4142588 224.246723,25.2617612 224.403344,25.0309504 C224.996858,23.9263561 225.516174,22.7022531 225.961309,21.3586048 L227.086506,21.8037376 Z M228.224067,25.921216 C228.3065,25.8964863 228.384809,25.8676354 228.458999,25.8346624 C228.829944,25.5626354 229.308045,24.866092 229.893315,23.7450112 L227.976771,23.7450112 L227.976771,22.6198144 L230.981418,22.6198144 C230.833039,22.2241388 230.672299,21.8531985 230.499191,21.5069824 L231.698576,21.3091456 C231.879927,21.7625239 232.036547,22.1994091 232.168439,22.6198144 L234.87633,22.6198144 L234.87633,23.7450112 L231.117431,23.7450112 C230.664052,24.6105515 230.243653,25.2988518 229.856221,25.8099328 C230.87014,25.7110139 231.867557,25.5873671 232.848503,25.4389888 L232.106615,24.4250752 L232.99688,23.8686592 C233.804718,24.9073076 234.435316,25.8305368 234.888695,26.6383744 L233.973699,27.2689792 L233.83326,27.0125246 C233.748284,26.8629262 233.630233,26.6598996 233.479107,26.4034432 C231.945865,26.634254 230.280755,26.8197241 228.483728,26.9598592 L228.224067,25.921216 Z M230.536285,27.343168 C230.478582,28.9011406 230.284869,30.0510555 229.955139,30.7929472 C229.592437,31.5595686 228.994811,32.2272612 228.162243,32.7960448 L227.420355,31.8686848 C228.112788,31.4235498 228.607375,30.8918687 228.904131,30.2736256 C229.184402,29.6883555 229.349264,28.711546 229.398723,27.343168 L230.536285,27.343168 Z M233.132893,32.598208 C232.259109,32.598208 231.822224,32.2066599 231.822224,31.423552 L231.822224,27.2071552 L232.947421,27.2071552 L232.947421,31.2009856 C232.947421,31.4070666 233.021609,31.5224703 233.169987,31.5472 L233.862416,31.5472 C234.093227,31.5224703 234.220995,31.3617295 234.245725,31.0649728 C234.286941,30.6940269 234.307549,30.2159261 234.307549,29.630656 L235.321463,29.9892352 C235.321463,31.1515322 235.230788,31.8769266 235.049437,32.16544 C234.884572,32.404494 234.50951,32.5487486 233.92424,32.598208 L233.132893,32.598208 Z M237.132344,29.9150464 L237.132344,28.8393088 L241.954616,28.8393088 L241.954616,28.3447168 L243.116907,28.3447168 L243.116907,28.8393088 L247.86499,28.8393088 L247.86499,29.9150464 L244.477035,29.9150464 C245.293116,30.5580192 246.471882,31.0773356 248.013368,31.4730112 L247.506411,32.5116544 C245.54452,31.8439519 244.134946,30.9784245 243.277649,29.9150464 L243.116907,29.9150464 L243.116907,32.8331392 L241.954616,32.8331392 L241.954616,29.9150464 L241.793873,29.9150464 C241.010765,30.9372083 239.617679,31.8192219 237.614571,32.5611136 L236.996331,31.5595648 C238.677952,31.0649703 239.881447,30.516803 240.606853,29.9150464 L237.132344,29.9150464 Z M238.257541,24.7836544 C238.034973,25.0227084 237.767072,25.2947313 237.453829,25.5997312 L236.773765,24.7094656 C237.80417,23.7779793 238.583144,22.6610369 239.110712,21.3586048 L240.211179,21.6059008 C240.08753,21.9356304 239.963884,22.2241396 239.840235,22.4714368 L242.214277,22.4714368 C242.057655,22.1252207 241.88455,21.8037391 241.694955,21.5069824 L242.894341,21.3091456 C243.059205,21.6718482 243.219946,22.0592747 243.376568,22.4714368 L247.27148,22.4714368 L247.27148,23.4358912 L243.438392,23.4358912 L243.438392,24.066496 L246.776888,24.066496 L246.776888,24.9567616 L243.438392,24.9567616 L243.438392,25.5626368 L246.776888,25.5626368 L246.776888,26.4529024 L243.438392,26.4529024 L243.438392,27.1082368 L247.506411,27.1082368 L247.506411,28.085056 L238.257541,28.085056 L238.257541,24.7836544 Z M242.288465,27.1082368 L242.288465,26.4529024 L239.345643,26.4529024 L239.345643,27.1082368 L242.288465,27.1082368 Z M242.288465,25.5626368 L242.288465,24.9567616 L239.345643,24.9567616 L239.345643,25.5626368 L242.288465,25.5626368 Z M242.288465,24.066496 L242.288465,23.4358912 L239.345643,23.4358912 L239.345643,24.066496 L242.288465,24.066496 Z M258.578527,21.3215104 C259.155554,21.7666454 259.637777,22.2035307 260.025209,22.6321792 L259.456428,23.20096 L260.940204,23.20096 L260.940204,24.3261568 L257.255494,24.3261568 C257.338613,25.671179 257.470217,26.7356591 257.650308,27.5196233 L257.700627,27.7264768 C257.741843,27.8995849 257.799545,28.1056628 257.873734,28.3447168 C258.393058,27.4214738 258.825822,26.3787194 259.172038,25.2164224 L260.247775,25.67392 C259.744938,27.2895953 259.118461,28.6414666 258.368326,29.7295744 C258.500218,30.0098446 258.636229,30.2612597 258.776364,30.4838272 C259.155553,31.0361244 259.444062,31.3122688 259.6419,31.3122688 C259.806765,31.3122688 259.967506,30.7063997 260.124127,29.4946432 L261.1875,30.063424 C260.874257,31.7780182 260.420886,32.6353024 259.827372,32.6353024 C259.283318,32.6353024 258.714543,32.2684837 258.12103,31.5348352 C257.939678,31.3040244 257.762451,31.0320016 257.589343,30.7187584 C256.765019,31.6420014 255.804696,32.346788 254.708345,32.8331392 L254.040646,31.8439552 C255.235916,31.3081445 256.237455,30.537413 257.045292,29.5317376 C256.888671,29.1195755 256.736173,28.6373532 256.587795,28.085056 C256.324011,27.1041103 256.146784,25.8511564 256.056108,24.3261568 L252.074643,24.3261568 L252.074643,26.1314176 L255.104019,26.1314176 L255.094003,26.7769864 C255.056167,28.6398731 254.948223,29.838382 254.770169,30.372544 C254.572331,30.883625 254.151932,31.1474047 253.508959,31.1638912 C253.253419,31.1638912 252.911329,31.1432834 252.482681,31.1020672 L252.124102,30.0386944 L253.221516,30.0857112 C253.284001,30.0873395 253.334478,30.0881536 253.372947,30.0881536 C253.587271,30.0799104 253.731525,29.9397774 253.805715,29.6677504 C253.87166,29.3874802 253.916998,28.5796547 253.941727,27.2442496 L252.074643,27.2442496 L252.074643,27.3184384 C252.025183,29.5853297 251.526474,31.4194234 250.578502,32.8207744 L249.688236,32.0294272 C250.463101,30.9001032 250.867014,29.3297893 250.899987,27.3184384 L250.899987,23.20096 L255.994284,23.20096 L255.980545,22.7407147 C255.973218,22.3853421 255.969555,21.9328838 255.969555,21.3833344 L257.156575,21.3833344 L257.159667,21.7519604 C257.165849,22.1491791 257.181305,22.6321764 257.206035,23.20096 L259.110214,23.20096 C258.747511,22.7970412 258.322991,22.4096147 257.836639,22.0386688 L258.578527,21.3215104 Z M265.285869,26.0201344 L266.992212,26.0201344 L266.992212,25.0309504 L264.92729,25.0309504 L264.92729,25.9706752 C264.92729,26.646621 264.886075,27.3555291 264.803642,28.0974208 L266.992212,28.0974208 L266.992212,27.0587776 L265.285869,27.0587776 L265.285869,26.0201344 Z M264.655265,29.1607936 C264.416211,30.5126852 264.032906,31.7326666 263.505338,32.8207744 L262.553249,31.9676032 C263.336356,30.4096306 263.732026,28.4106746 263.740269,25.9706752 L263.740269,21.8161024 L273.199341,21.8161024 L273.199341,25.0309504 L271.480634,25.0309504 L271.480634,26.0201344 L273.335354,26.0201344 L273.335354,27.0587776 L271.480634,27.0587776 L271.480634,28.0974208 L273.755757,28.0974208 L273.755757,29.1607936 L272.519277,29.1607936 L273.236436,29.8655872 C272.857247,30.3272087 272.440969,30.7105137 271.987591,31.0155136 C272.62232,31.3782162 273.343593,31.6378744 274.151431,31.794496 L273.595015,32.907328 C271.377583,32.3303011 269.790783,31.0814688 268.834567,29.1607936 L267.301332,29.1607936 L267.301332,31.5101056 C268.051467,31.3205111 268.702673,31.1103116 269.25497,30.8795008 L269.477537,31.9552384 C268.480104,32.3014545 267.293095,32.5982068 265.916474,32.845504 L265.594989,31.8192256 C265.965935,31.6708473 266.151405,31.4029459 266.151405,31.0155136 L266.151405,29.1607936 L264.655265,29.1607936 Z M270.021588,29.1607936 C270.310101,29.6059286 270.656312,30.0057198 271.060231,30.3601792 C271.538339,30.0716658 271.971103,29.6718746 272.358535,29.1607936 L270.021588,29.1607936 Z M270.343073,25.0309504 L268.117409,25.0309504 L268.117409,26.0201344 L270.343073,26.0201344 L270.343073,25.0309504 Z M268.117409,28.0974208 L270.343073,28.0974208 L270.343073,27.0587776 L268.117409,27.0587776 L268.117409,28.0974208 Z M272.012321,22.89184 L264.92729,22.89184 L264.92729,23.9799424 L272.012321,23.9799424 L272.012321,22.89184 Z M278.657838,21.3215104 C278.138514,22.162321 277.742845,23.0154837 277.470818,23.881024 C277.108115,24.9196724 276.926766,25.9912777 276.926766,27.095872 C276.926766,28.1839798 277.108115,29.2555851 277.470818,30.31072 C277.742845,31.1597738 278.138514,32.0129365 278.657838,32.8702336 L277.557371,32.8702336 C276.980344,32.0541527 276.535216,31.2133547 276.221973,30.3478144 C275.842784,29.309166 275.653192,28.2293176 275.653192,27.1082368 C275.653192,25.9706695 275.842784,24.8866996 276.221973,23.8562944 C276.526973,22.9742676 276.972101,22.129348 277.557371,21.3215104 L278.657838,21.3215104 Z M281.519728,21.5193472 C282.434727,22.1458335 283.197216,22.7640674 283.807216,23.3740672 L282.966409,24.2272384 C282.422355,23.633725 281.655745,23.0031265 280.666556,22.335424 L281.519728,21.5193472 Z M281.222972,24.4127104 C282.047297,25.014467 282.768569,25.6409439 283.386812,26.29216 L282.546006,27.1329664 C282.026682,26.5559395 281.305409,25.9212195 280.382166,25.2287872 L281.222972,24.4127104 Z M283.733027,28.3447168 C283.13127,29.9026894 282.475942,31.3575996 281.767024,32.7094912 L280.580003,32.1901696 C281.387841,30.7723321 282.084384,29.3462728 282.669654,27.9119488 L283.733027,28.3447168 Z M284.1287,28.3447168 L284.1287,27.2318848 L287.009699,27.2318848 L287.009699,25.9335808 L288.17199,25.9335808 L288.17199,27.2318848 L291.176636,27.2318848 L291.176636,28.3447168 L289.148809,28.3447168 C289.692863,29.3503922 290.546026,30.248892 291.708323,31.0402432 L290.941705,31.9923328 C289.688733,30.9124682 288.786111,29.6966084 288.233814,28.3447168 L288.17199,28.3447168 L288.17199,32.7713152 L287.009699,32.7713152 L287.009699,28.3447168 L286.93551,28.3447168 C286.309024,29.8697164 285.323971,31.1226703 283.980323,32.103616 L283.349718,31.0897024 C284.561475,30.3560539 285.451731,29.4410679 286.020515,28.3447168 L284.1287,28.3447168 Z M291.090083,21.8284672 L291.090083,24.251968 L289.964886,24.251968 L289.964886,22.9042048 L285.290992,22.9042048 L285.290992,24.3014272 L284.165795,24.3014272 L284.165795,21.8284672 L291.090083,21.8284672 Z M287.195171,23.9552128 C286.642874,25.0762936 285.925722,25.9335778 285.043696,26.5270912 L284.190524,25.797568 C285.089038,25.2287844 285.760852,24.4827822 286.205987,23.5595392 L287.195171,23.9552128 Z M288.753136,23.4729856 C289.635162,24.3302827 290.331706,25.1133789 290.842787,25.8222976 L289.903062,26.477632 C289.391981,25.7110106 288.724289,24.8908204 287.899964,24.0170368 L288.753136,23.4729856 Z M293.346097,24.5981824 L294.829873,24.5981824 L294.829873,21.5069824 L295.979799,21.5069824 L295.979799,24.5981824 L297.364657,24.5981824 L297.364657,25.735744 L295.979799,25.735744 L295.979799,29.4822784 C296.482637,29.2926839 297.006075,29.0824844 297.550129,28.8516736 L297.550129,30.0263296 C296.23121,30.5951132 294.871096,31.0567278 293.469745,31.4111872 L293.185354,30.2241664 C293.646976,30.141734 294.195143,30.0139657 294.829873,29.8408576 L294.829873,25.735744 L293.346097,25.735744 L293.346097,24.5981824 Z M300.703153,22.2612352 L301.77889,22.2612352 L301.77889,32.0046976 L300.703153,32.0046976 L300.703153,22.2612352 Z M303.151383,21.65536 L304.25185,21.65536 L304.25185,32.8207744 L303.151383,32.8207744 L303.151383,21.65536 Z M298.279652,21.6924544 L299.392484,21.6924544 L299.392484,26.6383744 C299.367754,29.4987791 298.733034,31.5884094 297.488305,32.907328 L296.598039,32.1283456 C297.69439,30.9990216 298.254922,29.1690495 298.279652,26.6383744 L298.279652,21.6924544 Z M307.719615,21.3215104 C308.288398,22.129348 308.733527,22.9742676 309.055013,23.8562944 C309.434202,24.9196725 309.623794,26.0036425 309.623794,27.1082368 C309.623794,28.1963446 309.434202,29.276193 309.055013,30.3478144 C308.733527,31.2133547 308.288398,32.0541527 307.719615,32.8702336 L306.619148,32.8702336 C307.130229,32.0129365 307.525898,31.1597738 307.806168,30.31072 C308.168871,29.2226122 308.35022,28.1510069 308.35022,27.095872 C308.35022,26.0242506 308.168871,24.9526454 307.806168,23.881024 C307.525898,23.0154837 307.130229,22.162321 306.619148,21.3215104 L307.719615,21.3215104 Z" id="国际智慧显示及系统集成展(深圳）" fill="#FFFFFF" fill-rule="nonzero"></path>
                    <path d="M123.337991,45.4823296 L129.458567,45.4823296 L129.458567,46.5457024 L126.997972,46.5457024 L126.997972,48.0665728 L129.075258,48.0665728 L129.075258,49.105216 L126.997972,49.105216 L126.997972,50.8239232 L128.259181,50.8239232 C128.044857,50.3540585 127.809928,49.9254163 127.554388,49.537984 L128.481748,49.2412288 C128.778504,49.6533909 129.025798,50.082033 129.223636,50.527168 L128.555936,50.8239232 L129.817146,50.8239232 L129.817146,51.887296 L123.004141,51.887296 L123.004141,50.8239232 L125.810951,50.8239232 L125.810951,49.105216 L123.733664,49.105216 L123.733664,48.0665728 L125.810951,48.0665728 L125.810951,46.5457024 L123.337991,46.5457024 L123.337991,45.4823296 Z M131.597677,43.5163264 L131.597677,54.4344448 L130.410656,54.4344448 L130.410656,53.9645824 L122.398266,53.9645824 L122.398266,54.4344448 L121.211245,54.4344448 L121.211245,43.5163264 L131.597677,43.5163264 Z M122.398266,52.8641152 L130.410656,52.8641152 L130.410656,44.6291584 L122.398266,44.6291584 L122.398266,52.8641152 Z M140.196834,48.9568384 C139.801158,50.6879191 139.232383,52.1840449 138.490491,53.4452608 L137.526037,52.8270208 C138.276172,51.5328319 138.811974,50.1644744 139.133461,48.7219072 L140.196834,48.9568384 Z M143.733166,48.5488 C144.252491,49.9419078 144.709984,51.4174258 145.105659,52.9753984 L144.067016,53.432896 C143.621881,51.6358694 143.168509,50.1232573 142.706888,48.8950144 L143.733166,48.5488 Z M139.640418,54.3973504 L139.393122,53.2845184 C139.830013,53.3422211 140.188589,53.371072 140.468859,53.371072 C140.765616,53.371072 140.913992,53.2020881 140.913992,52.8641152 L140.913992,47.7945472 L137.94644,47.7945472 L137.94644,46.6569856 L145.006741,46.6569856 L145.006741,47.7945472 L142.076283,47.7945472 L142.076283,53.1485056 C142.076283,53.981073 141.67237,54.3973504 140.864533,54.3973504 L139.640418,54.3973504 Z M138.700693,43.6894336 L144.363771,43.6894336 L144.363771,44.8146304 L138.700693,44.8146304 L138.700693,43.6894336 Z M134.063893,43.4668672 L138.020629,43.4668672 L138.020629,44.3942272 C137.657926,45.4328756 137.225162,46.549818 136.722325,47.745088 C137.431244,48.874412 137.810427,49.8635862 137.859886,50.71264 C137.859886,51.2814236 137.740361,51.6935795 137.501307,51.94912 C137.155091,52.2623632 136.557465,52.423104 135.708411,52.4313472 L135.349832,51.2937856 C135.621859,51.3350018 135.823815,51.3556096 135.955707,51.3556096 C136.26895,51.3308799 136.470907,51.2731781 136.561582,51.1825024 C136.668744,51.0918267 136.722325,50.9352075 136.722325,50.71264 C136.722325,49.8883159 136.33902,48.9568436 135.572398,47.9181952 C136.116452,46.714682 136.553338,45.6018611 136.883067,44.5796992 L135.201454,44.5796992 L135.201454,54.4715392 L134.063893,54.4715392 L134.063893,43.4668672 Z M148.301398,43.0835584 L149.451324,43.0835584 L149.451324,45.3215872 L150.786723,45.3215872 L150.786723,46.446784 L149.451324,46.446784 L149.451324,47.250496 C150.077811,47.8769823 150.667194,48.5240671 151.219491,49.1917696 L150.551792,50.1933184 C150.172602,49.5915618 149.805784,49.0351514 149.451324,48.5240704 L149.451324,54.4468096 L148.301398,54.4468096 L148.301398,48.8331904 C147.930452,49.8635956 147.493567,50.7868247 146.990729,51.6029056 L146.483772,50.3169664 C147.308096,49.1629126 147.905722,47.8728647 148.276668,46.446784 L146.891811,46.446784 L146.891811,45.3215872 L148.301398,45.3215872 L148.301398,43.0835584 Z M153.024752,48.9321088 C152.629076,50.646703 152.072666,52.1387073 151.355504,53.4081664 L150.329225,52.752832 C151.087603,51.5081026 151.627528,50.1562313 151.949014,48.6971776 L153.024752,48.9321088 Z M156.709462,48.5982592 C157.195813,49.9501508 157.620334,51.4339119 157.983036,53.0495872 L156.907299,53.5318144 C156.536353,51.8584364 156.120075,50.3293381 155.658454,48.9444736 L156.709462,48.5982592 Z M152.53016,54.3231616 L152.295228,53.2226944 C152.666174,53.2721538 153.028871,53.2968832 153.383331,53.2968832 C153.688331,53.2968832 153.840828,53.1278993 153.840828,52.7899264 L153.840828,47.7945472 L150.9351,47.7945472 L150.9351,46.6693504 L157.945942,46.6693504 L157.945942,47.7945472 L155.015484,47.7945472 L155.015484,53.0743168 C155.015484,53.9068842 154.603328,54.3231616 153.779004,54.3231616 L152.53016,54.3231616 Z M151.57807,43.6894336 L157.302972,43.6894336 L157.302972,44.8022656 L151.57807,44.8022656 L151.57807,43.6894336 Z M164.269975,43.6894336 L170.217444,43.6894336 L170.217444,49.7358208 L164.269975,49.7358208 L164.269975,43.6894336 Z M169.030423,48.5982592 L169.030423,44.8146304 L165.444631,44.8146304 L165.444631,48.5982592 L169.030423,48.5982592 Z M161.154046,43.1453824 C161.92891,43.7388958 162.600724,44.3447649 163.169508,44.963008 L162.365796,45.7790848 C161.862958,45.1855714 161.182901,44.5755807 160.325604,43.9490944 L161.154046,43.1453824 Z M159.497162,46.7311744 L162.328702,46.7311744 L162.328702,51.9367552 C162.666674,51.623512 163.02525,51.2773011 163.404439,50.898112 L163.725924,52.134592 C162.992275,52.8599972 162.196815,53.5112035 161.339518,54.0882304 L160.894385,53.0248576 C161.100466,52.8435063 161.203505,52.6374284 161.203505,52.4066176 L161.203505,47.8563712 L159.497162,47.8563712 L159.497162,46.7311744 Z M166.606922,50.8115584 C166.029895,52.2129094 165.320987,53.4534986 164.480177,54.5333632 L163.441534,53.7791104 C164.265858,52.8146512 164.974766,51.6564932 165.568279,50.3046016 L166.606922,50.8115584 Z M168.820222,50.2551424 C169.759951,51.5658178 170.493588,52.7363404 171.021156,53.7667456 L170.007242,54.4715392 C169.504405,53.4164043 168.791375,52.2129092 167.868132,50.8610176 L168.820222,50.2551424 Z M175.465739,44.6415232 L173.437912,44.6415232 L173.437912,43.4915968 L181.00517,43.4915968 L181.00517,44.2582144 C180.807332,45.1402412 180.580646,46.0057686 180.325106,46.8548224 L182.785701,46.8548224 L182.785701,47.5472512 C182.422998,49.1958994 181.681118,50.5889863 180.560037,51.7265536 C181.450307,52.3530399 182.48894,52.921815 183.675967,53.432896 L182.896984,54.483904 C181.611039,53.8903906 180.527069,53.2433059 179.645042,52.5426304 C178.565177,53.3751978 177.2504,54.0428903 175.700671,54.545728 L175.020607,53.4576256 C176.471417,52.9712744 177.687277,52.386013 178.668223,51.701824 C177.69552,50.745608 176.941275,49.6946105 176.405464,48.5488 C175.960329,51.1042048 174.934061,53.0660668 173.326629,54.4344448 L172.423999,53.6430976 C174.41062,51.9779629 175.424523,49.3113143 175.465739,45.643072 L175.465739,44.6415232 Z M179.583218,50.959936 C180.522947,50.0861524 181.178275,49.0763705 181.549221,47.93056 L178.866059,47.93056 L178.996234,47.5266424 C179.217197,46.8053626 179.458195,45.8436625 179.719231,44.6415232 L176.65276,44.6415232 L176.65276,45.9645568 L176.640395,46.2860416 C177.085531,48.0830682 178.066462,49.6410174 179.583218,50.959936 Z M187.180825,44.8888192 C186.925285,45.2515218 186.653262,45.5647603 186.364749,45.828544 L188.14528,45.828544 C188.194739,45.5153008 188.231833,45.2020624 188.256563,44.8888192 L187.180825,44.8888192 Z M187.823795,46.9042816 L185.523942,46.9042816 L185.523942,45.828544 L186.080358,45.828544 L185.499213,45.0990208 C186.084483,44.5796966 186.583191,43.8584238 186.995353,42.9351808 L188.046361,43.1577472 L187.959313,43.3872378 C187.906887,43.5178098 187.841106,43.672122 187.761971,43.850176 L191.149926,43.850176 L191.149926,44.8888192 L189.38176,44.8888192 L189.332301,45.4328708 C189.315814,45.5894912 189.299328,45.7213819 189.282841,45.828544 L191.496141,45.828544 L191.496141,46.9042816 L189.035545,46.9042816 L188.986086,47.0773888 C189.876356,47.5307671 190.651209,48.0006248 191.310669,48.486976 L190.581145,49.228864 L195.304499,49.228864 L195.304499,54.483904 L194.117478,54.483904 L194.117478,54.0016768 L188.281293,54.0016768 L188.281293,54.483904 L187.106637,54.483904 L187.106637,49.4019712 C186.702718,49.6492684 186.360628,49.8388601 186.080358,49.970752 L185.289011,49.0186624 C186.566713,48.4498788 187.40339,47.7615784 187.799065,46.9537408 L187.823795,46.9042816 Z M188.281293,52.9630336 L194.117478,52.9630336 L194.117478,52.1469568 L188.281293,52.1469568 L188.281293,52.9630336 Z M188.281293,51.1330432 L194.117478,51.1330432 L194.117478,50.2675072 L188.281293,50.2675072 L188.281293,51.1330432 Z M190.370944,49.228864 C189.884593,48.7919722 189.29521,48.3592085 188.602777,47.93056 C188.306021,48.3921815 187.889743,48.8249452 187.353933,49.228864 L190.370944,49.228864 Z M191.879449,43.8625408 L196.207129,43.8625408 L196.207129,48.5364352 L191.879449,48.5364352 L191.879449,43.8625408 Z M195.057203,47.5101568 L195.057203,44.901184 L193.029376,44.901184 L193.029376,47.5101568 L195.057203,47.5101568 Z M208.2437,51.3185152 L204.138587,51.3185152 C204.633181,51.7141908 205.028851,52.0810095 205.325607,52.4189824 L204.509531,52.9753984 C204.188044,52.5879661 203.755281,52.1675671 203.211227,51.7141888 L203.854196,51.3185152 L199.415233,51.3185152 L199.415233,50.4777088 L207.118503,50.4777088 L207.118503,49.9583872 L199.984014,49.9583872 L199.984014,49.1546752 L207.118503,49.1546752 L207.118503,48.6600832 L199.563611,48.6600832 L199.563611,47.8192768 L200.911374,47.8192768 L200.911374,47.2010368 L198.784628,47.2010368 L198.784628,46.38496 L200.911374,46.38496 L200.911374,45.8532736 L199.242126,45.8532736 L199.242126,45.0371968 L200.911374,45.0371968 L200.911374,44.5178752 L199.019559,44.5178752 L199.019559,43.7017984 L200.911374,43.7017984 L200.911374,43.0959232 L202.048935,43.0959232 L202.048935,43.7017984 L203.742913,43.7017984 L203.742913,44.5178752 L202.048935,44.5178752 L202.048935,45.0371968 L203.557441,45.0371968 L203.557441,45.8532736 L202.048935,45.8532736 L202.048935,46.38496 L203.730548,46.38496 L203.730548,47.2010368 L202.048935,47.2010368 L202.048935,47.8192768 L205.956212,47.8192768 L205.956212,47.2010368 L204.113857,47.2010368 L204.113857,46.38496 L205.956212,46.38496 L205.956212,45.8532736 L204.373518,45.8532736 L204.373518,45.0371968 L205.956212,45.0371968 L205.956212,44.5178752 L204.175681,44.5178752 L204.175681,43.7017984 L205.956212,43.7017984 L205.956212,43.0959232 L207.093774,43.0959232 L207.093774,43.7017984 L208.973223,43.7017984 L208.973223,44.5178752 L207.093774,44.5178752 L207.093774,45.0371968 L208.713563,45.0371968 L208.713563,45.8532736 L207.093774,45.8532736 L207.093774,46.38496 L209.146331,46.38496 L209.146331,47.2010368 L207.093774,47.2010368 L207.093774,47.8192768 L208.2437,47.8192768 L208.2437,51.3185152 Z M200.490971,51.9862144 C200.23543,52.859998 199.880976,53.6224863 199.427598,54.2737024 L198.487873,53.680192 C198.941251,53.0784354 199.270976,52.4395938 199.477057,51.763648 L200.490971,51.9862144 Z M202.37042,54.236608 C201.570826,54.236608 201.171035,53.8697893 201.171035,53.1361408 L201.171035,51.7389184 L202.308596,51.7389184 L202.308596,52.8888448 C202.308596,53.1196556 202.432243,53.2350592 202.67954,53.2350592 L205.48635,53.2350592 C205.675944,53.2350592 205.824321,53.1897221 205.931483,53.0990464 C206.046888,52.983641 206.129319,52.6374301 206.178779,52.0604032 L207.242151,52.3942528 C207.143233,53.3010093 206.974249,53.836812 206.735195,54.0016768 C206.487897,54.1582984 206.145808,54.236608 205.708916,54.236608 L202.37042,54.236608 Z M208.144782,51.5534464 C208.853701,52.2953381 209.393625,52.9383013 209.764571,53.4823552 L208.899035,54.0882304 C208.511602,53.494717 207.979921,52.822903 207.303975,52.072768 L208.144782,51.5534464 Z M212.62646,49.2535936 L221.170537,49.2535936 L221.170537,50.3664256 L217.473461,50.3664256 L217.473461,52.938304 L222.20918,52.938304 L222.20918,54.0635008 L211.587817,54.0635008 L211.587817,52.938304 L216.286441,52.938304 L216.286441,50.3664256 L212.62646,50.3664256 L212.62646,49.2535936 Z M218.116431,45.8656384 C219.369404,46.4179356 220.539926,47.1186006 221.628034,47.9676544 L220.960335,48.9692032 C219.831011,48.0377169 218.676975,47.308201 217.498191,46.7806336 L218.116431,45.8656384 Z M216.125698,46.7806336 C215.152996,47.6461739 213.953622,48.3633252 212.527541,48.9321088 L212.020585,47.868736 C213.380719,47.3741415 214.505905,46.7311784 215.396175,45.9398272 L216.125698,46.7806336 Z M217.077788,42.9475456 C217.176707,43.1948428 217.320961,43.6028772 217.510556,44.1716608 L222.233909,44.1716608 L222.233909,46.8053632 L221.034524,46.8053632 L221.034524,45.2597632 L212.762473,45.2597632 L212.762473,46.7929984 L211.563087,46.7929984 L211.563087,44.1716608 L216.286441,44.1716608 C216.154549,43.8336879 215.989686,43.4915985 215.791849,43.1453824 L217.077788,42.9475456 Z M227.309098,46.323136 L232.230288,46.323136 L232.230288,52.3076992 L227.309098,52.3076992 L227.309098,46.323136 Z M231.142186,51.269056 L231.142186,49.8223744 L228.409565,49.8223744 L228.409565,51.269056 L231.142186,51.269056 Z M228.409565,48.8084608 L231.142186,48.8084608 L231.142186,47.3617792 L228.409565,47.3617792 L228.409565,48.8084608 Z M232.477584,54.360256 L232.180829,53.2597888 L233.244202,53.2845184 C233.582175,53.2845184 233.751159,53.0578327 233.751159,52.6044544 L233.751159,44.6662528 L229.089629,44.6662528 L229.089629,43.5905152 L234.88872,43.5905152 L234.88872,52.9259392 C234.88872,53.8821552 234.422984,54.360256 233.491498,54.360256 L232.477584,54.360256 Z M224.724855,45.0990208 L225.862416,45.0990208 L225.862416,54.4715392 L224.724855,54.4715392 L224.724855,45.0990208 Z M226.789776,42.922816 C227.35856,43.5905185 227.86139,44.324156 228.298282,45.1237504 L227.234909,45.6801664 C226.798017,44.8558423 226.295187,44.0933539 225.726403,43.3926784 L226.789776,42.922816 Z M239.283845,52.8393856 L244.390507,52.8393856 C245.107669,51.1247914 245.742389,49.0104318 246.294686,46.4962432 L247.456977,46.8053632 C246.95414,49.1052275 246.352392,51.1165482 245.651717,52.8393856 L248.087582,52.8393856 L248.087582,53.9769472 L239.283845,53.9769472 L239.283845,52.8393856 Z M240.81708,47.1021184 C241.295188,48.3715775 241.736195,49.8759465 242.140113,51.6152704 L241.027281,51.8996608 C240.714038,50.3581747 240.306004,48.8661704 239.803166,47.4236032 L240.81708,47.1021184 Z M243.191121,46.199488 C243.61977,47.5843525 243.998953,49.1381802 244.328683,50.8610176 L243.215851,51.1330432 C242.96031,49.6245301 242.609978,48.0913102 242.164843,46.5333376 L243.191121,46.199488 Z M243.252945,42.9599104 C243.475513,43.3638292 243.669226,43.7636204 243.834091,44.159296 L248.285419,44.159296 L248.285419,45.2968576 L239.222021,45.2968576 L239.222021,47.8934656 C239.180804,50.6467082 238.781013,52.8393774 238.022635,54.4715392 L237.033451,53.5936384 C237.676424,52.2335036 238.01027,50.333465 238.035,47.8934656 L238.035,44.159296 L242.523422,44.159296 C242.350314,43.8048366 242.156601,43.4792335 241.942277,43.1824768 L243.252945,42.9599104 Z M252.28487,47.5348864 L252.28487,49.4267008 L255.128774,49.4267008 L255.128774,47.5348864 L252.28487,47.5348864 Z M252.223046,50.5148032 C252.074667,52.0727758 251.617174,53.3587021 250.850553,54.3726208 L249.947923,53.5689088 C250.689814,52.5055307 251.073119,51.157781 251.097849,49.5256192 L251.097849,43.4668672 L260.581651,43.4668672 L260.581651,52.7775616 C260.581651,53.7090479 260.107671,54.174784 259.159699,54.174784 L257.737747,54.174784 L257.428627,53.0248576 L257.935584,53.0592044 C258.254321,53.0775226 258.534588,53.0866816 258.77639,53.0866816 C259.180309,53.0866816 259.382265,52.8435096 259.382265,52.3571584 L259.382265,50.5148032 L256.315795,50.5148032 L256.315795,54.0387712 L255.128774,54.0387712 L255.128774,50.5148032 L252.223046,50.5148032 Z M259.382265,49.4267008 L259.382265,47.5348864 L256.315795,47.5348864 L256.315795,49.4267008 L259.382265,49.4267008 Z M259.382265,46.4591488 L259.382265,44.6044288 L256.315795,44.6044288 L256.315795,46.4591488 L259.382265,46.4591488 Z M255.128774,44.6044288 L252.28487,44.6044288 L252.28487,46.4591488 L255.128774,46.4591488 L255.128774,44.6044288 Z M265.533191,47.6585344 L267.239533,47.6585344 L267.239533,46.6693504 L265.174612,46.6693504 L265.174612,47.6090752 C265.174612,48.285021 265.133396,48.9939291 265.050964,49.7358208 L267.239533,49.7358208 L267.239533,48.6971776 L265.533191,48.6971776 L265.533191,47.6585344 Z M264.902586,50.7991936 C264.663532,52.1510852 264.280227,53.3710666 263.75266,54.4591744 L262.80057,53.6060032 C263.583678,52.0480306 263.979348,50.0490746 263.987591,47.6090752 L263.987591,43.4545024 L273.446663,43.4545024 L273.446663,46.6693504 L271.727956,46.6693504 L271.727956,47.6585344 L273.582676,47.6585344 L273.582676,48.6971776 L271.727956,48.6971776 L271.727956,49.7358208 L274.003079,49.7358208 L274.003079,50.7991936 L272.766599,50.7991936 L273.483757,51.5039872 C273.104568,51.9656087 272.688291,52.3489137 272.234913,52.6539136 C272.869642,53.0166162 273.590915,53.2762744 274.398753,53.432896 L273.842337,54.545728 C271.624905,53.9687011 270.038105,52.7198688 269.081889,50.7991936 L267.548653,50.7991936 L267.548653,53.1485056 C268.298788,52.9589111 268.949995,52.7487116 269.502292,52.5179008 L269.724858,53.5936384 C268.727426,53.9398545 267.540417,54.2366068 266.163796,54.483904 L265.842311,53.4576256 C266.213257,53.3092473 266.398727,53.0413459 266.398727,52.6539136 L266.398727,50.7991936 L264.902586,50.7991936 Z M270.268909,50.7991936 C270.557423,51.2443286 270.903634,51.6441198 271.307553,51.9985792 C271.785661,51.7100658 272.218424,51.3102746 272.605857,50.7991936 L270.268909,50.7991936 Z M270.590394,46.6693504 L268.36473,46.6693504 L268.36473,47.6585344 L270.590394,47.6585344 L270.590394,46.6693504 Z M268.36473,49.7358208 L270.590394,49.7358208 L270.590394,48.6971776 L268.36473,48.6971776 L268.36473,49.7358208 Z M272.259642,44.53024 L265.174612,44.53024 L265.174612,45.6183424 L272.259642,45.6183424 L272.259642,44.53024 Z M278.90516,42.9599104 C278.460025,43.6806052 278.105738,44.410375 277.842292,45.1492359 L277.718139,45.519424 C277.355437,46.5580724 277.174088,47.6296777 277.174088,48.734272 C277.174088,49.8223798 277.355437,50.8939851 277.718139,51.94912 C277.990166,52.7981738 278.385836,53.6513365 278.90516,54.5086336 L277.804693,54.5086336 C277.227666,53.6925527 276.782538,52.8517547 276.469294,51.9862144 C276.090105,50.947566 275.900514,49.8677176 275.900514,48.7466368 C275.900514,47.6090695 276.090105,46.5250996 276.469294,45.4946944 C276.774294,44.6126676 277.219423,43.767748 277.804693,42.9599104 L278.90516,42.9599104 Z M281.767049,43.1577472 C282.682049,43.7842335 283.444537,44.4024674 284.054537,45.0124672 L283.213731,45.8656384 C282.669677,45.272125 281.903067,44.6415265 280.913878,43.973824 L281.767049,43.1577472 Z M281.470294,46.0511104 C282.294618,46.652867 283.015891,47.2793439 283.634134,47.93056 L282.793328,48.7713664 C282.274003,48.1943395 281.552731,47.5596195 280.629488,46.8671872 L281.470294,46.0511104 Z M283.980348,49.9831168 C283.378592,51.5410894 282.723264,52.9959996 282.014345,54.3478912 L280.827324,53.8285696 C281.635162,52.4107321 282.331706,50.9846728 282.916976,49.5503488 L283.980348,49.9831168 Z M284.376022,49.9831168 L284.376022,48.8702848 L287.25702,48.8702848 L287.25702,47.5719808 L288.419312,47.5719808 L288.419312,48.8702848 L291.423958,48.8702848 L291.423958,49.9831168 L289.396131,49.9831168 C289.940185,50.9887922 290.793347,51.887292 291.955644,52.6786432 L291.189027,53.6307328 C289.936054,52.5508682 289.033433,51.3350084 288.481136,49.9831168 L288.419312,49.9831168 L288.419312,54.4097152 L287.25702,54.4097152 L287.25702,49.9831168 L287.182832,49.9831168 C286.556345,51.5081164 285.571293,52.7610703 284.227644,53.742016 L283.59704,52.7281024 C284.808796,51.9944539 285.699053,51.0794679 286.267836,49.9831168 L284.376022,49.9831168 Z M291.337404,43.4668672 L291.337404,45.890368 L290.212208,45.890368 L290.212208,44.5426048 L285.538313,44.5426048 L285.538313,45.9398272 L284.413116,45.9398272 L284.413116,43.4668672 L291.337404,43.4668672 Z M287.442492,45.5936128 C286.890195,46.7146936 286.173044,47.5719778 285.291017,48.1654912 L284.437846,47.435968 C285.336359,46.8671844 286.008173,46.1211822 286.453308,45.1979392 L287.442492,45.5936128 Z M289.000457,45.1113856 C289.882484,45.9686827 290.579028,46.7517789 291.090108,47.4606976 L290.150384,48.116032 C289.639303,47.3494106 288.97161,46.5292204 288.147286,45.6554368 L289.000457,45.1113856 Z M293.593418,46.2365824 L295.077194,46.2365824 L295.077194,43.1453824 L296.227121,43.1453824 L296.227121,46.2365824 L297.611978,46.2365824 L297.611978,47.374144 L296.227121,47.374144 L296.227121,51.1206784 C296.729959,50.9310839 297.253397,50.7208844 297.79745,50.4900736 L297.79745,51.6647296 C296.478532,52.2335132 295.118417,52.6951278 293.717066,53.0495872 L293.432676,51.8625664 C293.894298,51.780134 294.442465,51.6523657 295.077194,51.4792576 L295.077194,47.374144 L293.593418,47.374144 L293.593418,46.2365824 Z M300.950474,43.8996352 L302.026212,43.8996352 L302.026212,53.6430976 L300.950474,53.6430976 L300.950474,43.8996352 Z M303.398705,43.29376 L304.499172,43.29376 L304.499172,54.4591744 L303.398705,54.4591744 L303.398705,43.29376 Z M298.526974,43.3308544 L299.639806,43.3308544 L299.639806,48.2767744 C299.615076,51.1371791 298.980356,53.2268094 297.735626,54.545728 L296.845361,53.7667456 C297.941712,52.6374216 298.502244,50.8074495 298.526974,48.2767744 L298.526974,43.3308544 Z M307.534168,42.9599104 C308.102952,43.767748 308.54808,44.6126676 308.869567,45.4946944 C309.248756,46.5580725 309.438348,47.6420425 309.438348,48.7466368 C309.438348,49.8347446 309.248756,50.914593 308.869567,51.9862144 C308.54808,52.8517547 308.102952,53.6925527 307.534168,54.5086336 L306.433701,54.5086336 C306.944782,53.6513365 307.340452,52.7981738 307.620722,51.94912 C307.983425,50.8610122 308.164773,49.7894069 308.164773,48.734272 C308.164773,47.6626506 307.983425,46.5910454 307.620722,45.519424 C307.340452,44.6538837 306.944782,43.800721 306.433701,42.9599104 L307.534168,42.9599104 Z" id="国际标识及智慧空间应用展(深圳)" fill="#FFFFFF" fill-rule="nonzero"></path>
                </g>
            </g>
        </g>
    </g>
</svg>