<?xml version="1.0" encoding="UTF-8"?>
<svg width="247px" height="204px" viewBox="0 0 247 204" version="1.1" xmlns="http://www.w3.org/2000/svg" xmlns:xlink="http://www.w3.org/1999/xlink">
    <!-- Generator: Sketch 59.1 (86144) - https://sketch.com -->
    <title>编组 4</title>
    <desc>Created with Sketch.</desc>
    <g id="官网内容修正" stroke="none" stroke-width="1" fill="none" fill-rule="evenodd">
        <g id="-展品详情-未找到展品详情" transform="translate(-839.000000, -703.000000)">
            <g id="编组-4" transform="translate(833.000000, 698.000000)">
                <polygon id="Fill-1" fill="#6D86C8" points="212.849741 202.529946 215.519062 202.529946 215.519062 97.096914 212.849741 97.096914"></polygon>
                <path d="M240.152537,110.533385 C240.322492,147.400534 214.384302,177.407593 214.384302,177.407593 C214.384302,177.407593 188.170817,147.641077 188.000863,110.773656 C187.830908,73.9062353 213.768827,43.8991765 213.768827,43.8991765 C213.768827,43.8991765 239.982582,73.6659638 240.152537,110.533385" id="Fill-2" fill="#C2D3FF"></path>
                <polygon id="Fill-4" fill="#6D86C8" points="160.775985 200.931394 162.148926 200.931394 162.148926 146.704697 160.775985 146.704697"></polygon>
                <path d="M174.818374,153.615448 C174.905795,172.577348 161.565433,188.01038 161.565433,188.01038 C161.565433,188.01038 148.082808,172.700878 147.995659,153.738977 C147.908238,134.777348 161.248872,119.344045 161.248872,119.344045 C161.248872,119.344045 174.731225,134.653548 174.818374,153.615448" id="Fill-6" fill="#C2D3FF"></path>
                <path d="M189.20803,196.748932 C209.750021,196.748932 226.4026,199.301511 226.4026,202.45029 C226.4026,205.599339 209.750021,208.151647 189.20803,208.151647 C168.666039,208.151647 152.01346,205.599339 152.01346,202.45029 C152.01346,199.301511 168.666039,196.748932 189.20803,196.748932" id="Fill-7" fill="#BDC7E5"></path>
                <path d="M192.275605,69.5723891 C189.124655,64.2478643 182.890084,63.9997195 182.890084,63.9997195 C182.890084,63.9997195 176.815152,63.2229774 172.917867,71.3322081 C169.28556,78.8908507 164.272166,86.1888597 172.110989,87.958181 L173.526555,83.5513032 L174.403478,88.2864163 C175.519587,88.3665068 176.639225,88.3857828 177.757234,88.3437014 C186.151804,88.0727511 194.146465,88.4229774 193.888817,85.4104887 C193.546736,81.4062353 195.307913,74.6957376 192.275605,69.5723891" id="Fill-8" fill="#2F2E41"></path>
                <path d="M180.927487,79.5997466 C180.927487,79.5997466 184.999885,85.3011041 182.556446,89.9164887 C180.113008,94.5318733 188.257804,99.4187511 188.257804,99.4187511 L194.230655,86.3870769 C194.230655,86.3870769 187.171831,81.7716923 189.072284,77.4278009 L180.927487,79.5997466 Z" id="Fill-9" fill="#FBBEBE"></path>
                <path d="M183.642419,67.9255385 C187.54079,67.9255385 190.701243,71.085991 190.701243,74.984362 C190.701243,78.882733 187.54079,82.0431855 183.642419,82.0431855 C179.744048,82.0431855 176.583596,78.882733 176.583596,74.984362 C176.583596,71.085991 179.744048,67.9255385 183.642419,67.9255385" id="Fill-10" fill="#FBBEBE"></path>
                <path d="M159.213623,83.1442534 L165.112627,75.5332127 C165.112627,75.5332127 167.189822,67.5556561 170.197967,67.9599095 C173.206383,68.3644344 169.009913,77.5273303 169.009913,77.5273303 L163.148374,85.9517647 L159.213623,83.1442534 Z" id="Fill-11" fill="#FBBEBE"></path>
                <polygon id="Fill-12" fill="#FBBEBE" points="189.072284 184.395991 190.972736 194.44124 195.045134 195.527213 193.959161 183.581511"></polygon>
                <polygon id="Fill-13" fill="#FBBEBE" points="230.067759 173.536262 237.398075 183.581511 240.384501 184.938977 242.82794 180.866579 235.497623 171.364317"></polygon>
                <path d="M187.443324,95.0748597 L182.914275,89.1131403 C182.914275,89.1131403 174.140157,90.7309683 173.325677,91.545448 C172.511198,92.3599276 175.497623,107.292054 175.497623,107.292054 C175.497623,107.292054 176.040609,111.364452 178.484048,113.536398 L180.927487,115.165357 L201.017985,111.092959 L201.773279,102.153774 C202.32984,95.5700633 200.084048,89.0566697 195.588121,84.2151312 L192.092374,84.6929593 L187.443324,95.0748597 Z" id="Fill-14" fill="#FF9755"></path>
                <path d="M174.41165,92.0884344 L173.054184,91.545448 L166.80984,91.0024615 C166.80984,91.0024615 164.637894,90.4594751 165.180881,89.3735023 C165.723867,88.2875294 166.266854,88.0160362 165.180881,87.744543 C164.094908,87.4730498 163.823415,87.2015566 164.094908,86.3870769 C164.366401,85.5725973 165.99536,83.943638 165.99536,83.943638 L161.379976,80.142733 C161.379976,80.142733 161.130202,80.3194751 160.726492,80.6463529 C158.434817,82.5014661 151.184048,89.1954027 156.493098,95.8893394 C162.737442,103.762643 170.067759,108.378027 176.040609,106.749068 L174.41165,92.0884344 Z" id="Fill-15" fill="#FF9755"></path>
                <path d="M180.384501,113.807756 L180.384501,117.608661 C180.384501,117.608661 177.941062,122.224045 178.755541,126.567937 C179.570021,130.911828 179.841514,133.083774 179.841514,133.083774 C179.930021,136.778253 180.570745,140.438796 181.741967,143.943502 C183.642419,149.373367 177.398075,184.938977 185.271379,185.481964 C193.144682,186.02495 197.488573,186.567937 199.932012,183.853005 C202.375451,181.138072 195.859614,134.44124 195.859614,134.44124 C195.859614,134.44124 218.122057,180.866579 222.737442,178.966127 C227.352827,177.065674 239.027035,172.721783 237.669569,170.278344 C236.312103,167.834905 202.103958,113.536262 202.103958,113.536262 L201.017985,111.092824 L180.384501,113.807756 Z" id="Fill-16" fill="#2B2862"></path>
                <path d="M193.416175,192.540787 C193.416175,192.540787 189.072284,192.269294 189.072284,193.62676 C189.072284,194.984226 186.900338,199.599611 186.900338,199.599611 C186.900338,199.599611 185.271379,205.029475 189.61527,204.486489 C193.959161,203.943502 196.674094,199.056624 196.674094,199.056624 L195.588121,193.898253 L193.416175,192.540787 Z" id="Fill-17" fill="#2F2E41"></path>
                <path d="M238.755569,183.038525 C238.755569,183.038525 234.954664,180.595086 235.226157,182.224045 C235.49765,183.853005 235.769143,188.196896 237.669596,188.468389 C239.570048,188.739882 245.271406,190.368842 245.542899,190.911828 C245.814392,191.454814 252.330229,193.62676 252.330229,190.097348 C252.330229,186.567937 248.257831,183.853005 248.257831,183.853005 L243.642446,180.323593 C243.642446,180.323593 240.656021,180.0521 240.113035,181.952552 C239.570048,183.853005 238.755569,183.038525 238.755569,183.038525" id="Fill-18" fill="#2F2E41"></path>
                <path d="M183.653035,59.518914 C186.142627,59.518914 188.160908,61.5371946 188.160908,64.0267873 C188.160908,66.5163801 186.142627,68.5346606 183.653035,68.5346606 C181.163442,68.5346606 179.145161,66.5163801 179.145161,64.0267873 C179.145161,61.5371946 181.163442,59.518914 183.653035,59.518914" id="Fill-19" fill="#2F2E41"></path>
                <path d="M178.6707,62.8404706 C178.670971,60.5346787 180.411243,58.6008326 182.704003,58.3578462 C182.546265,58.3412851 182.387985,58.3328688 182.229433,58.3325973 C179.73984,58.3323258 177.72156,60.3500633 177.721017,62.8399276 C177.720745,65.3292489 179.738754,67.3478009 182.228347,67.3483439 L182.229433,67.3483439 C182.387985,67.3480724 182.546265,67.3396561 182.704003,67.3228235 C180.411243,67.0801086 178.670971,65.1462624 178.6707,62.8404706" id="Fill-20" fill="#2F2E41"></path>
                <polygon id="Fill-21" fill="#2F2E41" points="190.882329 69.0592127 184.723234 65.8327873 176.217351 67.1527873 174.457532 74.925095 178.838618 74.7564977 180.062238 71.9012036 180.062238 74.7095294 182.083505 74.6318824 183.256627 70.0857285 183.989931 74.925095 191.175813 74.7784887"></polygon>
                <path d="M190.513804,114.436914 L181.015071,114.693475 C181.015071,114.693475 172.909641,116.270851 173.364392,112.999357 C173.819143,109.727864 181.726383,110.872208 181.726383,110.872208 L190.381587,109.551665 L190.513804,114.436914 Z" id="Fill-22" fill="#FBBEBE"></path>
                <path d="M198.029198,83.7548416 C199.015532,83.6055204 199.963858,84.1960181 200.264944,85.1470588 C202.124673,91.0069683 207.853722,110.616923 202.161596,113.307149 C195.457342,116.476018 190.565035,116.336471 190.565035,116.336471 L187.946211,109.88905 L190.330465,107.651946 L192.875442,91.2876923 L194.094989,84.3507692 L198.029198,83.7548416 Z" id="Fill-23" fill="#FF9755"></path>
                <polygon id="Fill-24" fill="#C2440E" points="196.266854 94.6676199 195.180881 105.527348 185.678618 109.599747 196.266854 107.156308"></polygon>
                <path d="M149.728352,60.2557811 C152.788895,61.0667313 155.437039,62.9902607 157.154505,65.6500797 L158.04256,67.0254643 L158.087085,67.0824779 L167.990523,70.3425756 C168.584278,70.5163313 168.929889,71.1342498 168.766993,71.7312634 L167.557491,76.166105 C167.392695,76.7712634 161.709436,75.7743142 166.156315,76.4238263 C160.473056,74.9336073 166.158487,76.9615801 166.156315,76.96104 L156.249347,73.9037449 L154.683646,74.4958715 C151.801745,75.5853738 148.640478,75.6928851 145.691247,74.8015729 L149.728352,60.2557811 Z" id="Fill-25" fill="#3F3D56"></path>
                <path d="M158.004365,70.6758462 C158.151786,70.1716833 159.03794,69.9870679 159.983551,70.2637195 C160.92889,70.540371 161.575858,71.1734932 161.428166,71.6776561 C161.280745,72.1820905 160.394863,72.3667059 159.44898,72.0897828 C158.503641,71.8131312 157.856673,71.180009 158.004365,70.6758462" id="Fill-26" fill="#575A89"></path>
                <path d="M160.632582,70.8346697 C160.99394,70.8346697 161.286609,71.1276109 161.286609,71.4886968 C161.286609,71.8500543 160.99394,72.142724 160.632582,72.142724 C160.271496,72.142724 159.978555,71.8500543 159.978555,71.4886968 C159.978555,71.1276109 160.271496,70.8346697 160.632582,70.8346697" id="Fill-27" fill="#3F3D56"></path>
                <path d="M144.469745,66.5283602 C145.76884,62.5219349 148.290741,59.7499892 150.102686,60.3375005 C151.914632,60.9250118 152.330017,64.6493557 151.030922,68.6557811 C149.731827,72.6624779 147.209926,75.4341521 145.39798,74.8466408 C143.586035,74.2591295 143.17065,70.5347856 144.469745,66.5283602" id="Fill-28" fill="#0B2A8F"></path>
                <path d="M150.546523,68.5141973 C151.798379,64.6535639 151.457926,61.0557358 149.810777,60.2730209 C149.9096,60.2852381 150.007609,60.3069575 150.102632,60.3376363 C151.914578,60.9251476 152.329962,64.6494915 151.030867,68.6559168 C149.731772,72.6623421 147.209872,75.4340163 145.397926,74.8467765 C145.332225,74.8253286 145.268152,74.7992652 145.205709,74.7696725 C146.988062,74.9963693 149.315845,72.3096725 150.546523,68.5141973" id="Fill-29" fill="#000000"></path>
                <path d="M147.95755,70.9877186 L123.931508,48.4730915 C118.446631,44.1877855 111.983131,37.8036295 108.162277,34.8065043 C102.370612,30.2634501 85.2447504,16.6607379 71.5466225,12.5783711 C45.0338183,4.67692701 24.9554758,11.9691871 12.7223251,34.6612566 C9.99459905,39.7210416 6.54406381,49.7865818 6.09550895,55.2876522 C3.47001376,87.4866879 38.0615125,121.4178 88.4990957,88.8649517 C110.112575,74.915427 110.112575,79.869103 125.341201,79.9718114 L141.878196,84.2374615 L147.95755,70.9877186 Z" id="Fill-30" fill="#436FFF" transform="translate(76.956597, 55.788533) rotate(-8.000000) translate(-76.956597, -55.788533) "></path>
                <g id="编组-2" transform="translate(29.000379, 27.139882)" fill="#E6E6E6">
                    <path d="M24.243939,29.1902358 L23.7200048,29.3497976 C24.0367468,30.3976661 24.3201477,31.4717314 24.5606811,32.5410336 L25.096523,32.4195761 C24.8512265,31.3383663 24.5630626,30.2523934 24.243939,29.1902358" id="Fill-40"></path>
                    <path d="M21.8838057,22.9458442 L21.3860681,23.1744701 C21.8433198,24.1723267 22.2719933,25.1963801 22.660181,26.2204334 L23.1722077,26.0275304 C22.779257,24.9915694 22.348202,23.953227 21.8838057,22.9458442" id="Fill-41"></path>
                    <path d="M18.6925935,17.0921648 L18.2305787,17.3850917 C18.818814,18.3091212 19.3832341,19.266492 19.9071684,20.2262443 L20.3882353,19.9642772 C19.859538,18.9926173 19.2879733,18.0257204 18.6925935,17.0921648" id="Fill-42"></path>
                    <path d="M14.3081686,12.0814003 C15.0178614,12.9149321 15.708502,13.7865682 16.3610383,14.6677304 L16.7992379,14.3414623 C16.1419386,13.450774 15.4441534,12.5696118 14.7249345,11.7265539 L14.3081686,12.0814003 Z" id="Fill-43"></path>
                    <path d="M10.0619195,6.94920219 L9.69754704,7.35644201 C10.5167897,8.08756847 11.3193618,8.85679924 12.0838295,9.64031912 L12.4767802,9.2568945 C11.7027864,8.46384854 10.8906883,7.68747321 10.0619195,6.94920219" id="Fill-44"></path>
                    <path d="M4.79395094,2.84829721 L4.48673494,3.3007859 C5.39647535,3.91283639 6.29668969,4.56537271 7.16118123,5.2393427 L7.49935699,4.80828769 C6.62295785,4.12717314 5.71321743,3.46749226 4.79395094,2.84829721" id="Fill-45"></path>
                    <path d="M3.55271368e-14,-3.48165941e-13 L3.55271368e-14,0.619195046 C0.569183139,0.916884973 1.13360324,1.22886402 1.68611574,1.54798762 L1.95999047,1.07406525 C1.31698023,0.702548226 0.663729459,0.344367707 3.55271368e-14,-3.48165941e-13" id="Fill-46"></path>
                </g>
                <g id="编组" transform="translate(20.000379, 71.139882)" fill="#E6E6E6">
                    <path d="M21.8838057,22.9458442 L21.3860681,23.1744701 C21.8433198,24.1723267 22.2719933,25.1963801 22.660181,26.2204334 L23.1722077,26.0275304 C22.779257,24.9915694 22.348202,23.953227 21.8838057,22.9458442" id="Fill-50"></path>
                    <path d="M18.6925935,17.0921648 L18.2305787,17.3850917 C18.818814,18.3091212 19.3832341,19.266492 19.9071684,20.2262443 L20.3882353,19.9642772 C19.859538,18.9926173 19.2879733,18.0257204 18.6925935,17.0921648" id="Fill-51"></path>
                    <path d="M14.7249583,11.7265539 L14.3081924,12.0814003 C15.0178852,12.9149321 15.7085258,13.7865682 16.3610622,14.6677304 L16.7992617,14.3414623 C16.1419624,13.450774 15.4441772,12.5696118 14.7249583,11.7265539" id="Fill-52"></path>
                    <path d="M10.0619195,6.94920219 L9.69754704,7.35644201 C10.5167897,8.08756847 11.3193618,8.85679924 12.0838295,9.64031912 L12.4767802,9.2568945 C11.7027864,8.46384854 10.8906883,7.68747321 10.0619195,6.94920219" id="Fill-53"></path>
                    <path d="M4.79397476,2.84829721 L4.48675875,3.3007859 C5.39649917,3.91283639 6.2967135,4.56537271 7.16120505,5.2393427 L7.4993808,4.80828769 C6.62298166,4.12717314 5.71324125,3.46749226 4.79397476,2.84829721" id="Fill-54"></path>
                    <path d="M3.28626015e-14,1.0658141e-13 L3.28626015e-14,0.619195046 C0.569183139,0.916884973 1.13360324,1.22886402 1.68611574,1.54798762 L1.95999047,1.07406525 C1.31698023,0.702548226 0.663729459,0.344367707 3.28626015e-14,1.0658141e-13" id="Fill-55"></path>
                </g>
                <g id="编组-3" transform="translate(97.000379, 33.139882)" fill="#E6E6E6">
                    <path d="M25.7228388,35.701286 L25.1819957,35.7846392 C25.3510836,36.865849 25.4846868,37.970874 25.5823291,39.0639914 L26.1276971,39.016361 C26.0300548,37.9089545 25.8943082,36.7944034 25.7228388,35.701286" id="Fill-57"></path>
                    <path d="M24.243939,29.1902358 L23.7200048,29.3497976 C24.0367468,30.3976661 24.3199095,31.4717314 24.5606811,32.5410336 L25.096523,32.4195761 C24.8512265,31.3383663 24.5630626,30.2523934 24.243939,29.1902358" id="Fill-58"></path>
                    <path d="M21.8838057,22.9458442 L21.3860681,23.1744701 C21.8433198,24.1723267 22.2719933,25.1963801 22.660181,26.2204334 L23.1722077,26.0275304 C22.779257,24.9915694 22.348202,23.953227 21.8838057,22.9458442" id="Fill-59"></path>
                    <path d="M18.6924744,17.0921648 L18.2306978,17.3850917 C18.8186949,18.3091212 19.383115,19.266492 19.9072874,20.2262443 L20.3881162,19.9642772 C19.8594189,18.9926173 19.2878543,18.0257204 18.6924744,17.0921648" id="Fill-60"></path>
                    <path d="M14.7249345,11.7265539 L14.3081686,12.0814003 C15.0178614,12.9149321 15.708502,13.7865682 16.3610383,14.6677304 L16.7992379,14.3414623 C16.1419386,13.450774 15.4441534,12.5696118 14.7249345,11.7265539" id="Fill-61"></path>
                    <path d="M10.0619195,6.94920219 L9.69754704,7.35644201 C10.5167897,8.08756847 11.3193618,8.85679924 12.0838295,9.64031912 L12.4767802,9.2568945 C11.7027864,8.46384854 10.8906883,7.68747321 10.0619195,6.94920219" id="Fill-62"></path>
                    <path d="M4.79395094,2.84829721 L4.48673494,3.3007859 C5.39647535,3.91283639 6.29668969,4.56537271 7.16118123,5.2393427 L7.49935699,4.80828769 C6.62295785,4.12717314 5.71321743,3.46749226 4.79395094,2.84829721" id="Fill-63"></path>
                    <path d="M-4.26325641e-13,1.03028697e-13 L-4.26325641e-13,0.619195046 C0.569183139,0.916884973 1.13360324,1.22886402 1.68611574,1.54798762 L1.95999047,1.07406525 C1.31698023,0.702548226 0.663729459,0.344367707 -4.26325641e-13,1.03028697e-13" id="Fill-64"></path>
                </g>
                <path d="M53.1787746,68.0923207 C47.3241985,59.2113275 49.6329975,47.1684816 58.3357624,41.1938489 C67.0385272,35.2192162 78.8395364,37.575456 84.6942671,46.4562915 C90.5489978,55.3374425 88.2401988,67.3802884 79.5374339,73.3547633 C74.3589509,76.909875 67.7993639,77.6416333 61.9905617,75.3122209 C61.0752382,78.6462427 57.6847213,80.5917069 54.417763,79.6576379 C51.1506501,78.7235689 49.2442285,75.2636159 50.1595521,71.9295941 C50.6112602,70.2841241 51.7019473,68.8979335 53.1787746,68.0923207" id="Fill-69" fill="#FFFFFF"></path>
                <path d="M65.0003787,67.6398819 C65.0003787,66.2442399 66.3431507,65.1398819 67.9932997,65.1398819 C69.6576067,65.1398819 71.0003787,66.2321165 71.0003787,67.6398819 C71.0003787,69.0476473 69.6576067,70.1398819 67.9932997,70.1398819 C66.3289927,70.1398819 65.0003787,69.0476473 65.0003787,67.6398819 M68.8140039,46.1398819 C73.6637471,46.1398819 77.0003787,48.7926762 77.0003787,52.605654 C77.0003787,55.130879 75.7589175,56.8779489 73.366258,58.2681306 C71.1160558,59.556223 70.3531264,60.4998276 70.3531264,62.132238 C70.3531264,62.6887183 69.89561,63.1398819 69.331466,63.1398819 L66.8519887,63.1398819 C66.3016254,63.1398819 65.8503102,62.7097817 65.8310174,62.1674002 L65.8265387,62.0430584 C65.6067378,59.4159139 66.5379629,57.7835035 68.8787728,56.4317114 C71.0643784,55.143619 71.982512,54.3274138 71.982512,52.746133 C71.982512,51.1646823 70.4306424,50.0041591 68.5035955,50.0041591 C67.0390606,50.0041591 65.8799385,50.7072337 65.3483513,51.8548471 C64.9668005,52.6482903 64.1523661,53.1504136 63.2619661,53.1414107 C61.582109,53.1414107 60.4722527,51.3797324 61.25792,49.9154892 C62.5007593,47.5993689 65.1226937,46.1398819 68.8140039,46.1398819" id="Fill-70" fill="#436FFF"></path>
                <path d="M59.9008312,19.1398819 C60.9504239,19.1398819 61.8012836,19.9907417 61.8012836,21.0403344 C61.8012836,22.0899272 60.9504239,22.9407869 59.9008312,22.9407869 C58.8512384,22.9407869 58.0003787,22.0899272 58.0003787,21.0403344 C58.0003787,19.9907417 58.8512384,19.1398819 59.9008312,19.1398819" id="Fill-31" fill="#F2F2F2"></path>
                <polygon id="Fill-32" fill="#F2F2F2" points="83.2706093 17.1688688 82.7759487 17.1688688 82.7759487 16.6742081 82.6792971 16.6742081 82.6792971 17.1688688 82.1846365 17.1688688 82.1846365 17.2655204 82.6792971 17.2655204 82.6792971 17.760181 82.7759487 17.760181 82.7759487 17.2655204 83.2706093 17.2655204"></polygon>
                <polygon id="Fill-33" fill="#F2F2F2" points="130.380469 57.8753014 129.885809 57.8753014 129.885809 57.3806408 129.789157 57.3806408 129.789157 57.8753014 129.294496 57.8753014 129.294496 57.971953 129.789157 57.971953 129.789157 58.4666136 129.885809 58.4666136 129.885809 57.971953 130.380469 57.971953"></polygon>
                <polygon id="Fill-34" fill="#F2F2F2" points="134.1316 72.6354824 133.63694 72.6354824 133.63694 72.1408218 133.540288 72.1408218 133.540288 72.6354824 133.045628 72.6354824 133.045628 72.732134 133.540288 72.732134 133.540288 73.2267946 133.63694 73.2267946 133.63694 72.732134 134.1316 72.732134"></polygon>
                <polygon id="Fill-37" fill="#F2F2F2" points="83.8135958 73.3679638 83.3189351 73.3679638 83.3189351 72.8733032 83.2222836 72.8733032 83.2222836 73.3679638 82.7276229 73.3679638 82.7276229 73.4646154 83.2222836 73.4646154 83.2222836 73.959276 83.3189351 73.959276 83.3189351 73.4646154 83.8135958 73.4646154"></polygon>
                <polygon id="Fill-38" fill="#F2F2F2" points="31.9583922 5.49466063 31.4637315 5.49466063 31.4637315 5 31.3670799 5 31.3670799 5.49466063 30.8724193 5.49466063 30.8724193 5.59131222 31.3670799 5.59131222 31.3670799 6.08597285 31.4637315 6.08597285 31.4637315 5.59131222 31.9583922 5.59131222"></polygon>
            </g>
        </g>
    </g>
</svg>