<?xml version="1.0" encoding="UTF-8"?>
<svg width="46px" height="46px" viewBox="0 0 46 46" version="1.1" xmlns="http://www.w3.org/2000/svg" xmlns:xlink="http://www.w3.org/1999/xlink">
    <!-- Generator: Sketch 59.1 (86144) - https://sketch.com -->
    <title>编组 2</title>
    <desc>Created with Sketch.</desc>
    <defs>
        <circle id="path-1" cx="23" cy="23" r="23"></circle>
    </defs>
    <g id="直播PC" stroke="none" stroke-width="1" fill="none" fill-rule="evenodd">
        <g id="展会直播list-中" transform="translate(-1410.000000, -703.000000)">
            <g id="编组-2" transform="translate(1410.000000, 703.000000)">
                <g id="编组">
                    <mask id="mask-2" fill="white">
                        <use xlink:href="#path-1"></use>
                    </mask>
                    <use id="蒙版" fill="#E7EEFF" xlink:href="#path-1"></use>
                    <g mask="url(#mask-2)">
                        <g transform="translate(4.000000, 7.000000)">
                            <path d="M18.6639045,28.6154114 C18.6911091,28.6359341 18.7059045,28.6607523 18.7159273,28.686525 C18.7264273,28.6607523 18.7412227,28.6359341 18.7684273,28.6154114 C22.1737682,26.0080705 23.5096545,24.2602977 24.1057682,23.7978205 C23.6957909,22.9234568 23.5297,22.0595932 23.4638364,21.3436841 C23.3927227,21.4090705 23.3235182,21.4763659 23.2504955,21.5398432 C22.8429045,21.898275 22.4066773,22.2256841 21.9370409,22.5001159 C21.5375636,22.7349341 21.1147,22.9291841 20.6732227,23.0709341 C20.2718364,23.1997977 19.8575636,23.2847523 19.4385182,23.3272295 C18.9178136,23.3792523 18.3832682,23.3635023 17.8663818,23.2814114 C17.4416091,23.2145932 17.02495,23.100525 16.6254727,22.9435023 C16.1763591,22.7673886 15.7501545,22.5373432 15.3492455,22.2695932 C14.8719727,21.9517295 14.4304955,21.5823205 14.0186091,21.184275 C14.0167,21.1823659 14.0147909,21.1799795 14.0124045,21.1780705 C13.9556091,21.9264341 13.7933364,22.8661841 13.3447,23.8126159 C13.9498818,24.2960932 15.2934045,26.0343205 18.6639045,28.6154114" id="Fill-1" fill="#FFBEA3"></path>
                            <path d="M17.5937636,33.4631659 C17.1336727,32.4327341 16.6191727,31.8442568 16.5638091,30.9899386 C16.09465,31.5144614 15.7491045,32.0657114 15.7977864,32.5835523 C15.9357182,34.0444841 11.6817864,29.1376432 11.1510591,26.6548705 C11.0980818,27.0910977 11.0608545,28.0924159 12.39865,30.0640295 C13.0596727,31.0381432 14.8169909,36.0580977 16.5471045,41.4617795 C17.09215,37.8244841 17.6142864,34.5227114 17.77465,33.6430977 C17.6978091,33.5972795 17.6271727,33.538575 17.5937636,33.4631659" id="Fill-3" fill="#FFFFFF"></path>
                            <path d="M19.8384727,33.4631659 C19.8045864,33.538575 19.7344273,33.5972795 19.6571091,33.643575 C19.8217682,34.5460977 20.3672909,37.9986886 20.9276091,41.7467114 C22.3933136,36.7262795 24.1997909,31.265325 25.0144955,30.0640295 C26.2926318,28.1802341 26.3155409,27.1846432 26.2687682,26.718825 C25.6788591,29.2206886 21.49795,34.0315977 21.63445,32.5835523 C21.6831318,32.0657114 21.3375864,31.5144614 20.8684273,30.9899386 C20.8130636,31.8442568 20.2985636,32.4327341 19.8384727,33.4631659" id="Fill-5" fill="#FFFFFF"></path>
                            <path d="M25.5550068,31.5055841 L25.5912795,31.5327886 C25.5950977,31.5222886 25.5989159,31.5127432 25.6027341,31.5022432 C25.5731432,31.5041523 25.5550068,31.5055841 25.5550068,31.5055841" id="Fill-7" fill="#93AFCA"></path>
                            <path d="M20.9277045,41.7469023 C20.3673864,37.9984023 19.8218636,34.5458114 19.6572045,33.6432886 C19.7345227,33.5974705 19.8042045,33.5387659 19.8385682,33.4633568 C20.2986591,32.4324477 20.8131591,31.8444477 20.8685227,30.9901295 C20.0433182,30.0675614 18.8386818,29.2294705 18.7160227,28.8070841 C18.5933636,29.2294705 17.3887273,30.0675614 16.5635227,30.9901295 C16.6193636,31.8444477 17.1338636,32.4324477 17.5939545,33.4633568 C17.6273636,33.5387659 17.6975227,33.5974705 17.7748409,33.6432886 C17.6144773,34.522425 17.0923409,37.8241977 16.5468182,41.4614932 C17.1138182,43.2307432 17.6765227,45.0405614 18.1981818,46.7644705 C18.3108182,46.7659023 18.4210682,46.7725841 18.5332273,46.7725841 C18.8735227,46.7725841 19.2104773,46.7587432 19.5479091,46.7472886 C19.9235227,45.2791977 20.4031818,43.5424023 20.9277045,41.7469023" id="Fill-9" fill="#142C85"></path>
                            <path d="M11.6362545,25.3975432 C11.5317318,25.4992023 11.4415273,25.587975 11.3637318,25.6657705 C11.2501409,25.8328159 11.1561182,26.0771795 11.1737773,26.4399068 C11.1761636,26.4852477 11.1632773,26.5558841 11.1508682,26.6551568 C11.6820727,29.1374523 15.9360045,34.0442932 15.7980727,32.5838386 C15.7489136,32.0659977 16.0949364,31.5142705 16.5636182,30.990225 C17.3888227,30.0676568 18.5934591,29.2295659 18.7161182,28.8071795 C18.8387773,29.2295659 20.0434136,30.0676568 20.8686182,30.990225 C21.3373,31.5142705 21.6833227,32.0659977 21.6341636,32.5838386 C21.4976636,34.0318841 25.67905,29.220975 26.2684818,26.7191114 C26.2555955,26.5859523 26.2365045,26.4943159 26.2393682,26.4399068 C26.2598909,26.0304068 26.1377091,25.7683841 26.0055045,25.603725 C25.9563455,25.5550432 25.9024136,25.5006341 25.8441864,25.4443159 C25.7678227,25.3875205 25.7086409,25.3607932 25.7086409,25.3607932 C25.7086409,25.3607932 25.7267773,25.3574523 25.7539818,25.3560205 C25.4050955,25.0119068 24.9445273,24.5231795 24.5006636,23.7724295 C24.4176182,23.6321114 24.3011636,23.6464295 24.1059591,23.797725 C23.5098455,24.2602023 22.1734818,26.007975 18.7681409,28.6153159 C18.7414136,28.6358386 18.7261409,28.6606568 18.7161182,28.6869068 C18.7060955,28.6606568 18.6908227,28.6358386 18.6640955,28.6153159 C15.2931182,26.034225 13.9500727,24.2959977 13.3448909,23.8129977 C13.1382318,23.6478614 13.0170045,23.6278159 12.9315727,23.7724295 C12.4872318,24.5241341 12.0266636,25.0128614 11.6773,25.356975 C11.6935273,25.3588841 11.7045045,25.3607932 11.7045045,25.3607932 C11.7045045,25.3607932 11.6758682,25.3736795 11.6362545,25.3975432" id="Fill-11" fill="#FFFFFF"></path>
                            <path d="M15.3491023,22.2696409 C15.7500114,22.5373909 16.1762159,22.7674364 16.6253295,22.94355 C17.0252841,23.1005727 17.4419432,23.2141636 17.8662386,23.2814591 C18.383125,23.36355 18.9181477,23.3793 19.438375,23.3272773 C19.8574205,23.2848 20.2716932,23.1998455 20.6730795,23.0709818 C21.1145568,22.9292318 21.5378977,22.7349818 21.937375,22.5001636 C22.4065341,22.2257318 22.8427614,21.8983227 23.2508295,21.5398909 C23.323375,21.4764136 23.3930568,21.4091182 23.4636932,21.3437318 C23.5209659,21.2902773 23.5801477,21.2387318 23.6364659,21.1843227 C25.3904432,19.4909591 25.3751705,15.2122091 25.7989886,15.5148 C26.7664205,16.1643682 27.3863977,14.2295045 27.5071477,13.0802318 C27.6107159,12.0951409 27.2393977,11.60355 26.8270341,11.7877773 C26.7158295,12.0330955 26.5802841,12.2187545 26.4113295,12.3170727 C26.4113295,12.3170727 25.8061477,14.8184591 25.5465114,14.7401864 C25.2873523,14.6623909 25.4004659,12.4044136 25.8061477,9.76270909 C26.2380795,6.94870909 22.7807159,8.17482273 20.3604659,8.09702727 C17.9402159,8.01875455 12.3408523,7.54673182 11.9084432,8.87545909 C11.4765114,10.2041864 12.3217614,14.2175727 11.9762159,14.3736409 C11.6301932,14.5297091 11.1982614,12.5518909 10.8522386,12.1610045 C10.796875,12.0980045 10.7386477,11.9481409 10.6804205,11.7462545 C10.3320114,11.7276409 10.056625,12.2149364 10.1482614,13.0802318 C10.2685341,14.2295045 10.8885114,16.1643682 11.8564205,15.5148 C12.2788068,15.2126864 12.2649659,19.4804591 14.0122614,21.1781182 C14.0146477,21.1800273 14.0165568,21.1824136 14.0184659,21.1843227 C14.4303523,21.5823682 14.8718295,21.9517773 15.3491023,22.2696409" id="Fill-13" fill="#FFD4C2"></path>
                            <path d="M11.9082523,8.87545909 C12.3411386,7.54673182 17.940025,8.01875455 20.360275,8.09702727 C22.7810023,8.17482273 26.2383659,6.94870909 25.8064341,9.76270909 C25.400275,12.4044136 25.2876386,14.6619136 25.5467977,14.7401864 C25.8064341,14.8184591 26.4111386,12.3170727 26.4111386,12.3170727 C26.5805705,12.2187545 26.7161159,12.0330955 26.8268432,11.7877773 C27.5079114,10.2762545 27.1890932,6.42466364 27.1890932,5.75218636 C27.1890932,4.97041364 25.9792068,3.64168636 25.4604114,3.64168636 C24.9416159,3.64168636 25.374025,1.45339091 21.8297977,0.51555 C18.2860477,-0.422290909 15.1742295,0.0468681818 13.4455477,0.906436364 C11.7168659,1.76600455 9.75522727,3.03914679 8.97727273,3.2734877 C8.19931818,3.5078286 11.0889575,4.37552051 9.52849072,5.29745917 C7.96802392,6.21939783 9.68526488,6.18143179 9.90132045,7.15918636 C10.1027363,8.07068906 10.3742977,10.6953 10.6802295,11.7462545 C10.7384568,11.9481409 10.7966841,12.0980045 10.852525,12.1610045 C11.1980705,12.5518909 11.6300023,14.5297091 11.976025,14.3736409 C12.3220477,14.2175727 11.4763205,10.2041864 11.9082523,8.87545909 Z" id="Fill-15" fill="#464646"></path>
                            <path d="M30.2416341,30.7104 C30.8100659,31.1337409 26.1108386,31.4673545 25.6025432,31.5021955 C25.598725,31.5126955 25.5949068,31.5222409 25.5915659,31.5327409 L28.8857023,34.0198091 C28.8857023,34.0198091 26.0211114,37.9200818 24.4866795,40.2028773 C23.9473614,41.0051727 22.5971568,43.3223318 21.8430659,44.6439 C21.6302023,45.0176045 21.2121114,45.8022409 20.7453386,46.6789909 C25.2197705,46.3367864 29.4054523,44.9689227 33.0675659,42.8040136 C33.531475,37.1812636 37.6272735,33.7960636 40.1663644,34.2327682 C42.7054553,34.6694727 33.531475,29.5909091 31.6476795,28.2639 C30.1564452,27.2134242 28.6900205,26.7533318 27.8757932,26.7390136 C28.1874523,27.0272864 28.5024523,27.37665 28.7444295,27.8090591 C29.5944523,29.3306045 29.6407477,30.2631955 30.2416341,30.7104 Z" id="Fill-17" fill="#152651"></path>
                            <path d="M26.0057909,25.6035341 C26.1375182,25.7686705 26.2597,26.0306932 26.2391773,26.4397159 C26.2363136,26.494125 26.2554045,26.5862386 26.2687682,26.7189205 C26.3155409,27.1842614 26.2926318,28.1798523 25.0144955,30.064125 C24.1997909,31.2649432 22.3933136,36.726375 20.9276091,41.7468068 C20.4035636,43.5423068 19.9239045,45.2795795 19.5482909,46.7471932 C19.9492,46.732875 20.3482,46.7099659 20.7452909,46.6789432 C21.2120636,45.8021932 21.6301545,45.0175568 21.8430182,44.6443295 C22.5971091,43.3222841 23.9473136,41.005125 24.4866318,40.2028295 C26.0210636,37.9200341 28.8856545,34.0197614 28.8856545,34.0197614 L25.5915182,31.5326932 L25.5552455,31.5054886 C25.5552455,31.5054886 25.5733818,31.5040568 25.6024955,31.5021477 C26.1112682,31.4673068 30.8100182,31.1336932 30.2415864,30.7103523 C29.6407,30.2631477 29.5944045,29.3305568 28.7443818,27.8090114 C28.5024045,27.3766023 28.1874045,27.0272386 27.8757455,26.7389659 C27.4509727,26.347125 27.0324045,26.0717386 26.8171545,25.8894205 C26.2200864,25.3825568 25.8683364,25.3505795 25.7542682,25.3558295 C25.7270636,25.3572614 25.7089273,25.3606023 25.7089273,25.3606023 C25.7089273,25.3606023 25.7681091,25.3873295 25.8439955,25.444125 C25.8936318,25.4818295 25.9494727,25.5328977 26.0057909,25.6035341 Z" id="Fill-19" fill="#152651"></path>
                            <path d="M16.5176568,46.6937864 C16.0599523,45.6595364 15.707725,44.8849227 15.5697932,44.6439 C14.8157023,43.3223318 13.465975,41.0051727 12.9266568,40.2028773 C11.3927023,37.9200818 8.52811136,34.0198091 8.52811136,34.0198091 L11.8580432,31.5055364 C11.8580432,31.5055364 6.57129318,31.1580818 7.17217955,30.7104 C7.77306591,30.2631955 7.81888409,29.3306045 8.66890682,27.8090591 C8.91852045,27.3628091 9.24592955,27.0043773 9.56761136,26.7118091 C8.76006591,26.9499682 6.55326119,27.6276461 4.76052045,28.4573364 C-0.722115792,30.9947307 0.671045455,32.4078125 -4.79616347e-14,32.8502443 C2.66031818,32.2183352 4.32477045,37.5253773 4.76052045,43.2411955 C8.29138409,45.18465 12.2775659,46.3983545 16.5176568,46.6937864 Z" id="Fill-21" fill="#152651"></path>
                            <path d="M8.66914545,27.8090591 C7.81912273,29.3306045 7.77282727,30.2631955 7.17194091,30.7104 C6.57105455,31.1580818 11.8582818,31.5055364 11.8582818,31.5055364 L8.52787273,34.0198091 C8.52787273,34.0198091 11.3924636,37.9200818 12.9268955,40.2028773 C13.4662136,41.0051727 14.8159409,43.3223318 15.5700318,44.6439 C15.7074864,44.8849227 16.0597136,45.6595364 16.5174182,46.6937864 C17.0734409,46.7329227 17.6337591,46.7577409 18.1983727,46.7644227 C17.6767136,45.0405136 17.1135318,43.2311727 16.5470091,41.4614455 C14.8168955,36.0577636 13.0595773,31.0382864 12.3985545,30.0641727 C11.0612364,28.0925591 11.0979864,27.0912409 11.1509636,26.6550136 C11.1633727,26.5557409 11.1762591,26.4855818 11.1738727,26.4397636 C11.1562136,26.0770364 11.2502364,25.8326727 11.3638273,25.6661045 C11.4607136,25.5229227 11.5671455,25.4384455 11.63635,25.3974 C11.6759636,25.3735364 11.7041227,25.36065 11.7041227,25.36065 C11.7041227,25.36065 11.6936227,25.3587409 11.6773955,25.3568318 C11.58385,25.3477636 11.2249409,25.3554 10.5963727,25.8894682 C10.3858955,26.0679682 9.98212273,26.3342864 9.56785,26.7118091 C9.24616818,27.0043773 8.91828182,27.3628091 8.66914545,27.8090591" id="Fill-23" fill="#152651"></path>
                        </g>
                    </g>
                </g>
            </g>
        </g>
    </g>
</svg>