<?xml version="1.0" encoding="UTF-8"?>
<svg width="20px" height="20px" viewBox="0 0 20 20" version="1.1" xmlns="http://www.w3.org/2000/svg" xmlns:xlink="http://www.w3.org/1999/xlink">
    <!-- Generator: Sketch 59.1 (86144) - https://sketch.com -->
    <title>直播中心列表左上</title>
    <desc>Created with Sketch.</desc>
    <defs>
        <polygon id="path-1" points="0 0.183704187 19.984434 0.183704187 19.984434 19.8732311 0 19.8732311"></polygon>
    </defs>
    <g id="直播PC" stroke="none" stroke-width="1" fill="none" fill-rule="evenodd">
        <g id="展会直播list-中" transform="translate(-322.000000, -618.000000)">
            <g id="直播中心列表左上" transform="translate(322.000000, 618.000000)">
                <path d="M9.99779245,9.56574764 C9.38232075,9.22121639 8.85533962,8.9164316 8.42420755,8.66606604 L8.04458491,8.44486026 L8.04458491,14.6406651 L8.42420755,14.4157447 C8.52383019,14.3577966 8.63062264,14.2924192 8.74854717,14.223513 L8.77062264,14.2090259 C9.13175472,13.9913491 9.57760377,13.7229676 10.0566604,13.4544004 C11.0332642,12.9211663 12.3377925,12.1921716 13.0491132,11.7640613 L13.4360943,11.5318974 L13.0417547,11.3106916 C12.3489245,10.9297571 11.0332642,10.1933331 9.99779245,9.56574764" id="Fill-1" fill="#FFFFFF"></path>
                <g id="编组" transform="translate(0.000000, 0.002043)">
                    <mask id="mask-2" fill="white">
                        <use xlink:href="#path-1"></use>
                    </mask>
                    <g id="Clip-4"></g>
                    <path d="M14.2725472,12.4439858 C14.1619811,12.501934 13.8376415,12.6906368 13.2959434,13.0099086 L13.2627358,13.0316392 C12.6104717,13.4161026 11.715,13.9385643 10.6427358,14.5551916 C10.0457547,14.8779923 9.49669811,15.2009788 9.08764151,15.4439151 C8.80386792,15.6108874 8.51273585,15.7813886 8.45367925,15.8031191 L8.39839623,15.8213208 L8.35783019,15.8610672 C8.24726415,15.9699057 8.09254717,16.0280395 7.88990566,16.0280395 C7.26707547,16.0280395 6.79915094,15.54551 6.79915094,14.9034375 L6.79915094,8.22881781 C6.79915094,7.57578715 7.28915094,7.04255307 7.88990566,7.04255307 C8.08141509,7.04255307 8.27688679,7.09325767 8.47575472,7.19485259 C8.53103774,7.22401238 8.78915094,7.37259729 9.15386792,7.57950177 L9.16858491,7.58674528 C9.63669811,7.85512677 10.1083962,8.12722288 10.5800943,8.39560436 C12.4595283,9.4475855 13.9519811,10.3073349 14.2578302,10.4960377 L14.2651887,10.4995666 C14.5748113,10.6845548 14.7810377,11.0654894 14.7810377,11.4718691 C14.7774528,11.8853066 14.5783962,12.2662412 14.2725472,12.4439858 M17.0216038,3.19011792 L12.9089623,3.19011792 L14.0514151,1.17679245 C14.2210377,0.872007665 14.1287736,0.480300708 13.8414151,0.266338443 C13.5317925,0.0921226415 13.1633019,0.211919222 12.9642453,0.541963443 L11.464434,3.19011792 L8.23632075,3.19011792 L6.73273585,0.534719929 C6.53009434,0.204675708 6.16518868,0.0921226415 5.85933962,0.262623821 C5.56820755,0.483829599 5.47613208,0.868478774 5.64933962,1.17679245 L6.79179245,3.19011792 L2.96650943,3.19011792 C1.35971698,3.19011792 -9.43396226e-05,4.58663031 -9.43396226e-05,6.23722288 L-9.43396226e-05,16.8261262 C-9.43396226e-05,18.476533 1.35613208,19.8732311 2.96650943,19.8732311 L17.0180189,19.8732311 C18.6799057,19.8732311 19.984434,18.5346669 19.984434,16.8261262 L19.984434,6.2409375 C19.984434,4.58663031 18.6283962,3.19011792 17.0216038,3.19011792" id="Fill-3" fill="#FFFFFF" mask="url(#mask-2)"></path>
                </g>
            </g>
        </g>
    </g>
</svg>