<?xml version="1.0" encoding="UTF-8"?>
<svg width="68px" height="37px" viewBox="0 0 68 37" version="1.1" xmlns="http://www.w3.org/2000/svg" xmlns:xlink="http://www.w3.org/1999/xlink">
    <!-- Generator: Sketch 59.1 (86144) - https://sketch.com -->
    <title>Group 34</title>
    <desc>Created with Sketch.</desc>
    <defs>
        <polygon id="path-1" points="0 0.236743921 2.76594103 0.236743921 2.76594103 3.00188486 0 3.00188486"></polygon>
        <polygon id="path-3" points="0.215915627 0.179392996 2.29227858 0.179392996 2.29227858 2.2568517 0.215915627 2.2568517"></polygon>
        <polygon id="path-5" points="0.170952529 0.257526848 16.4660809 0.257526848 16.4660809 17.9922179 0.170952529 17.9922179"></polygon>
    </defs>
    <g id="直播PC" stroke="none" stroke-width="1" fill="none" fill-rule="evenodd">
        <g id="视频list-中" transform="translate(-1615.000000, -608.000000)">
            <g id="Group-34" transform="translate(1615.000000, 608.000000)">
                <g id="Group-3" transform="translate(0.000000, 13.050179)">
                    <mask id="mask-2" fill="white">
                        <use xlink:href="#path-1"></use>
                    </mask>
                    <g id="Clip-2"></g>
                    <path d="M0.384557198,0.663833463 C0.910300389,0.113483268 1.78265837,0.0917867704 2.33724202,0.617529961 C2.89156109,1.14618366 2.9098179,2.02145214 2.38328093,2.57365447 C1.85462724,3.1261214 0.982269261,3.14675953 0.42715642,2.61969339 C-0.123458366,2.0907751 -0.14621323,1.21762335 0.384557198,0.663833463" id="Fill-1" fill="#E95506" mask="url(#mask-2)"></path>
                </g>
                <path d="M3.39555486,7.68976809 C3.82313463,7.24313774 4.52932918,7.22408716 4.97569494,7.65193152 C5.42285447,8.08004047 5.44111128,8.7867642 5.01247315,9.23286537 C4.58568716,9.68161245 3.88081556,9.69669416 3.4315393,9.2691144 C2.98517354,8.84444514 2.96823969,8.1377214 3.39555486,7.68976809" id="Fill-4" fill="#009143"></path>
                <path d="M13.4331222,13.7995549 C13.4331222,12.4358506 14.5385852,11.3303875 15.9020249,11.3303875 C17.2657292,11.3303875 18.3711922,12.4358506 18.3711922,13.7995549 C18.3711922,15.1629946 17.2657292,16.2684576 15.9020249,16.2684576 C14.5385852,16.2684576 13.4331222,15.1629946 13.4331222,13.7995549" id="Fill-6" fill="#004F9D"></path>
                <path d="M7.06975097,14.2280872 C7.76721401,13.497021 8.9266537,13.4705619 9.65851362,14.1685541 C10.3914319,14.8668109 10.4165681,16.024663 9.71963424,16.7570521 C9.02005447,17.4878537 7.86246693,17.5156358 7.12928405,16.8165852 C6.39768872,16.118593 6.37202335,14.9602117 7.06975097,14.2280872" id="Fill-8" fill="#F08D00"></path>
                <path d="M21.6753837,8.76972451 C22.4948233,7.91350661 23.8513837,7.88122646 24.7076016,8.69828482 C25.5675237,9.51481401 25.5960996,10.8750786 24.7800996,11.7302381 C23.9606599,12.5869852 22.6033058,12.6184716 21.7486755,11.802207 C20.8906054,10.9843549 20.8599128,9.6264716 21.6753837,8.76972451" id="Fill-10" fill="#FBC700"></path>
                <path d="M27.9860218,5.57303658 C28.5342553,4.99781479 29.4423331,4.97664747 30.0186132,5.5259393 C30.593835,6.07417276 30.6157961,6.98410272 30.0646521,7.55773696 C29.5169479,8.13401712 28.6093992,8.1533323 28.0320607,7.6061572 C27.4568389,7.05633619 27.4364654,6.14799377 27.9860218,5.57303658" id="Fill-12" fill="#F7B400"></path>
                <path d="M7.88948171,8.83690428 C8.50836109,8.18627393 9.54185525,8.16219611 10.192221,8.78477977 C10.8423222,9.40524669 10.8666646,10.4363595 10.2469914,11.0861961 C9.62440778,11.738414 8.59382412,11.7616981 7.94266459,11.1414957 C7.2901821,10.520235 7.26689805,9.488593 7.88948171,8.83690428" id="Fill-14" fill="#3AB383"></path>
                <path d="M18.3120296,4.31934942 C19.0126677,3.58616654 20.1763409,3.55864903 20.9108467,4.26166848 C21.6466755,4.96124825 21.6723409,6.12465681 20.9698506,6.85704591 C20.2713292,7.59181634 19.1068623,7.61933385 18.3750023,6.9192249 C17.6391735,6.2175284 17.6143019,5.05517821 18.3120296,4.31934942" id="Fill-16" fill="#8EC31F"></path>
                <g id="Group-20" transform="translate(15.081712, 0.085198)">
                    <mask id="mask-4" fill="white">
                        <use xlink:href="#path-3"></use>
                    </mask>
                    <g id="Clip-19"></g>
                    <path d="M0.504178988,0.501427237 C0.898949416,0.0854894942 1.55698833,0.0706723735 1.96948638,0.46703035 C2.3862179,0.863388327 2.40103502,1.52063346 2.00467704,1.93710039 C1.60937743,2.35039222 0.950809339,2.36494475 0.537252918,1.96964514 C0.123167315,1.57249339 0.106233463,0.916306615 0.504178988,0.501427237" id="Fill-18" fill="#E3007E" mask="url(#mask-4)"></path>
                </g>
                <path d="M11.6968732,5.21607626 C12.1080482,4.13548482 13.3219938,3.59492451 14.4009977,4.00742257 C15.4807953,4.42124358 16.0229432,5.63069105 15.6091222,6.71154708 C15.1966241,7.79081556 13.9866475,8.33296342 12.9042039,7.92072996 C11.8273167,7.50717354 11.2851689,6.29719689 11.6968732,5.21607626" id="Fill-21" fill="#00A0E8"></path>
                <path d="M6.85786615,2.18309105 C7.14415409,1.43958911 7.97232529,1.07021946 8.71238755,1.35227393 C9.45615409,1.63697432 9.82578833,2.46488093 9.54585058,3.20864747 C9.25982724,3.95029728 8.43059767,4.32178366 7.6876249,4.03893541 C6.94623969,3.75502879 6.57475331,2.92500545 6.85786615,2.18309105" id="Fill-23" fill="#009E9E"></path>
                <polygon id="Fill-25" fill="#004F9D" points="21.831572 35.7896965 21.831572 36.3090895 10.0427004 36.3090895 10.0427004 35.7896965 13.7559767 35.7896965 13.7559767 20.2023502 10.0427004 20.2023502 10.0427004 19.6826926 18.0823113 19.6826926 18.0823113 35.7896965"></polygon>
                <path d="M36.25207,24.3936638 L35.7112451,24.3936638 C34.954249,21.1376016 32.2863735,19.6482163 29.9431518,19.6482163 C27.167323,19.6482163 26.0494241,21.4495549 26.0494241,22.5923253 C26.0494241,23.1813058 26.157642,24.047049 29.0776732,25.1210257 C34.9902335,27.3377728 35.0262179,27.3724342 35.9996498,28.2037805 C36.6486926,28.7924965 37.1892529,29.7624887 37.1892529,31.5291658 C37.1892529,33.8152358 35.5670428,36.8633292 31.0967704,36.8633292 C27.3475097,36.8633292 25.725035,35.2699595 25.0762568,34.6465821 L24.1747938,36.0319829 L23.6342335,36.0319829 L23.6342335,30.4901152 L24.1747938,30.4901152 C24.6074008,33.1915938 25.761284,34.5079362 26.6622179,35.1315782 C27.5996654,35.7896171 29.3300934,36.3439362 30.7361323,36.3439362 C32.7909494,36.3439362 34.8460311,35.1315782 34.8460311,33.4688856 C34.8460311,31.8408545 34.0168016,31.5291658 27.9962879,29.3121541 C25.9774553,28.5501307 23.8504047,27.6497261 23.8504047,24.4629868 C23.8504047,20.7219284 26.9508872,19.1288233 29.762965,19.1288233 C32.2503891,19.1288233 33.4040078,19.9945665 34.8100467,21.0685432 L35.7112451,19.6828778 L36.25207,19.6828778 L36.25207,24.3936638 Z" id="Fill-27" fill="#004F9D"></path>
                <polygon id="Fill-29" fill="#004F9D" points="50.3120887 35.7896965 50.3120887 36.3090895 38.5232171 36.3090895 38.5232171 35.7896965 42.2364934 35.7896965 42.2364934 11.3350973 38.5232171 11.3350973 38.5232171 10.8154397 46.562828 10.8154397 46.562828 35.7896965"></polygon>
                <g id="Group-33" transform="translate(51.330739, 18.871191)">
                    <mask id="mask-6" fill="white">
                        <use xlink:href="#path-5"></use>
                    </mask>
                    <g id="Clip-32"></g>
                    <path d="M11.5272171,8.43207938 C11.5272171,4.34467082 11.3830148,0.776919844 8.31851673,0.776919844 C6.58808872,0.776919844 5.11008093,1.40056187 4.9658786,8.43207938 L11.5272171,8.43207938 Z M4.92989416,8.95147237 C4.92989416,10.8567953 5.18204981,13.7318459 5.3984856,14.7015735 C5.75912374,16.1909588 7.12891362,17.2302739 9.21997977,17.2302739 C11.3470304,17.2302739 14.3030459,16.1562973 15.9255206,13.0042195 L16.3941121,13.2815113 C14.4112638,17.0569665 11.3470304,17.9922973 8.6069214,17.9922973 C1.90164514,17.9922973 0.170952529,13.1428654 0.170952529,9.09011829 C0.170952529,2.54359689 4.89364514,0.257526848 8.39075019,0.257526848 C10.9144233,0.257526848 13.2216607,1.36590039 14.627435,3.06298988 C15.9255206,4.65635953 16.4660809,7.11573696 16.4660809,8.95147237 L4.92989416,8.95147237 Z" id="Fill-31" fill="#004F9D" mask="url(#mask-6)"></path>
                </g>
            </g>
        </g>
    </g>
</svg>