<?xml version="1.0" encoding="UTF-8"?>
<svg width="28px" height="28px" viewBox="0 0 28 28" version="1.1" xmlns="http://www.w3.org/2000/svg" xmlns:xlink="http://www.w3.org/1999/xlink">
    <!-- Generator: Sketch 59.1 (86144) - https://sketch.com -->
    <title>出口</title>
    <desc>Created with Sketch.</desc>
    <defs>
        <polygon id="path-1" points="4.43302761e-05 0.0111897116 20.4491636 0.0111897116 20.4491636 10.2666537 4.43302761e-05 10.2666537"></polygon>
        <polygon id="path-3" points="0.233333333 0.116666667 0.35 0.116666667 0.35 0.233333333 0.233333333 0.233333333"></polygon>
    </defs>
    <g id="pc" stroke="none" stroke-width="1" fill="none" fill-rule="evenodd">
        <g id="出口">
            <path d="M0,14 C0,21.73206 6.26794,28 14,28 C21.73206,28 28,21.73206 28,14 C28,6.26794 21.73206,0 14,0 C6.26794,0 0,6.26794 0,14" id="Fill-1" fill="#5988FF"></path>
            <g id="编组" transform="translate(2.800000, 7.849180)">
                <g transform="translate(0.933333, 1.484153)">
                    <mask id="mask-2" fill="white">
                        <use xlink:href="#path-1"></use>
                    </mask>
                    <g id="Clip-2"></g>
                    <path d="M20.4281552,1.49736809 C20.4371491,1.48794295 20.4442764,1.47935934 20.4492094,1.47195388 C20.4531006,1.33310142 20.3884461,1.2009812 20.275937,1.11851126 L20.275937,1.11851126 C19.9071855,0.70616153 18.995743,0.172463169 18.1106036,0.0413527869 C16.9295127,-0.133685464 15.5312097,0.441921093 13.1724218,2.06102492 C9.18793697,4.78404787 5.63108848,7.27497683 4.44660364,8.11330907 C4.19053091,8.28615934 3.85402182,8.28615934 3.59811879,8.11330907 C2.86502788,7.64205224 1.3852703,6.76686098 0.0887854545,6.89140743 C0.0346521212,6.89662492 -0.00488727273,6.94442383 0.000543030303,6.99811344 C0.00291878788,7.02150798 0.013609697,7.04338776 0.0310884848,7.05971344 C0.0310884848,7.05971344 2.60030061,9.55384022 3.08563394,9.94784459 C3.47865212,10.2667845 4.29896727,10.3514424 4.92107636,10.179097 C4.90784,10.1861659 4.89426424,10.1934031 4.88102788,10.2003036 C5.03748848,10.1568807 5.18868848,10.097132 5.33242182,10.0217309 C8.13988848,8.51606536 13.21264,5.75416372 16.7038158,3.7686577 C18.7369552,2.62081071 20.2688097,1.71347301 20.4281552,1.49736809" id="Fill-1" fill="#FFFFFF" mask="url(#mask-2)"></path>
                </g>
                <path d="M8.51162062,5.00993743 L9.67020378,6.15081967 L9.67215864,6.14945027 L9.67346189,6.15081967 L12.1333333,4.34321029 L5.35321084,0.577357419 C5.15756146,0.516076723 4.94562155,0.562465183 4.78955818,0.700603513 C4.66868238,0.859796385 4.63430934,1.07325177 4.69833116,1.26548144 L8.51162062,5.00993743 Z" id="Fill-3" fill="#FFFFFF"></path>
                <g transform="translate(0.765027, 11.581123)">
                    <mask id="mask-4" fill="white">
                        <use xlink:href="#path-3"></use>
                    </mask>
                    <g id="Clip-6"></g>
                    <path d="" id="Fill-5" fill="#FFFFFF" mask="url(#mask-4)"></path>
                </g>
            </g>
        </g>
    </g>
</svg>