<?xml version="1.0" encoding="UTF-8"?>
<svg width="50px" height="39px" viewBox="0 0 50 39" version="1.1" xmlns="http://www.w3.org/2000/svg" xmlns:xlink="http://www.w3.org/1999/xlink">
    <!-- Generator: Sketch 59.1 (86144) - https://sketch.com -->
    <title>展馆</title>
    <desc>Created with Sketch.</desc>
    <defs>
        <polygon id="path-1" points="5.64971751e-05 0.22530833 49.9502825 0.22530833 49.9502825 38.5358255 5.64971751e-05 38.5358255"></polygon>
        <polygon id="path-3" points="0 38.3361702 50 38.3361702 50 0.165957447 0 0.165957447"></polygon>
    </defs>
    <g id="线上展厅" stroke="none" stroke-width="1" fill="none" fill-rule="evenodd">
        <g id="展馆">
            <g id="编组" transform="translate(0.000000, 0.165957)">
                <mask id="mask-2" fill="white">
                    <use xlink:href="#path-1"></use>
                </mask>
                <g id="Clip-2"></g>
                <path d="M48.3150282,27.4037375 L48.3150282,3.98967328 C48.3150282,2.81475081 47.3554237,1.85922972 46.1754802,1.85922972 L41.0839548,1.85922972 L41.0839548,26.7328756 L46.1808475,26.7328756 C46.250339,26.7328756 46.3136158,26.7331569 46.3831073,26.7396264 L46.4243503,26.7441269 L46.4444068,26.7441269 L46.4525989,26.7466585 L46.4907345,26.7503152 C46.5167232,26.7520029 46.5427119,26.7539719 46.5684181,26.7576286 L46.5972316,26.7635355 C46.6370621,26.7655045 46.6848023,26.7711302 46.7280226,26.7775997 C46.7619209,26.77985 46.7989266,26.7863195 46.8396045,26.7964457 L46.9170056,26.8082596 L47.0110734,26.8293559 C47.0158757,26.8293559 47.0396045,26.8352629 47.0633333,26.8417324 L47.1045763,26.8512961 C47.1218079,26.8555153 47.1418644,26.8617036 47.1613559,26.8684544 L47.1972316,26.8794245 C47.239322,26.8903945 47.2661582,26.8979892 47.2876271,26.9055838 C47.300339,26.9089592 47.3136158,26.9134598 47.3268927,26.917679 C47.3718079,26.9283678 47.4235028,26.9446823 47.4664407,26.9618406 C47.4972316,26.973092 47.5189831,26.9806866 47.5362147,26.988 C47.5692655,26.9995326 47.5980791,27.0110653 47.6263277,27.0223166 C47.6622034,27.0363808 47.6910169,27.050445 47.7198305,27.0647905 L47.8025989,27.1033264 L47.9099435,27.1581767 C47.9302825,27.1683029 47.950339,27.1784291 47.9703955,27.1905243 C47.9703955,27.1905243 47.9901695,27.2012131 48.0079661,27.2124645 C48.0325424,27.2234345 48.0644633,27.2419993 48.0977966,27.2630956 C48.1136158,27.2718154 48.18,27.3114764 48.18,27.3114764 C48.1980791,27.3221652 48.2870621,27.3787032 48.2870621,27.3787032 L48.3122034,27.4031749 C48.3130508,27.4031749 48.3138983,27.4031749 48.3150282,27.4037375 L48.3150282,27.4037375 Z M2.15824859,27.4124573 L2.02096045,27.1666152 C2.04384181,27.1539574 2.06672316,27.1421435 2.09214689,27.1320173 L2.11813559,27.1196408 C2.16446328,27.0943253 2.20514124,27.077167 2.24666667,27.0605712 L2.31841808,27.027661 L2.40118644,26.9947508 C2.42039548,26.9871561 2.4379096,26.9812492 2.45514124,26.9756235 C2.49977401,26.9587465 2.52180791,26.9519957 2.54355932,26.9452449 L2.66587571,27.2009318 L2.57491525,26.9339935 C2.60344633,26.9221796 2.63,26.9120534 2.65881356,26.9044587 C2.69751412,26.8903945 2.73988701,26.8774555 2.7760452,26.8704234 C2.79666667,26.86311 2.81502825,26.8574843 2.83367232,26.8527025 C2.87576271,26.8394821 2.91248588,26.8318875 2.95627119,26.8245741 L3.02435028,26.8099473 C3.05429379,26.8037591 3.14949153,26.7880072 3.14949153,26.7880072 L3.17350282,26.7880072 L3.20542373,26.7795687 C3.22971751,26.7764746 3.30372881,26.7697238 3.30372881,26.7697238 C3.32943503,26.7643794 3.36050847,26.7579098 3.39638418,26.7556596 C3.44355932,26.74919 3.49073446,26.7438457 3.53762712,26.7438457 C3.55033898,26.7410328 3.57293785,26.7385013 3.59836158,26.7385013 C3.64214689,26.7331569 3.70542373,26.7328756 3.77491525,26.7328756 L8.87180791,26.7328756 L8.87180791,1.85922972 L3.78056497,1.85922972 C2.60090395,1.85922972 1.64073446,2.81475081 1.64073446,3.98967328 L1.64073446,4.27095709 L1.61870056,4.27095709 L1.61870056,27.4057065 C1.63141243,27.3972679 1.64073446,27.391361 1.65033898,27.3857353 L1.67039548,27.3702647 L1.70655367,27.3505748 C1.71531073,27.3460743 1.72632768,27.3396048 1.73508475,27.3331352 C1.77124294,27.3058507 1.80853107,27.2805352 1.84440678,27.262533 L1.92237288,27.2175276 L1.94327684,27.2090891 C1.96418079,27.1958687 1.97915254,27.1871489 1.99327684,27.1801168 L2.15824859,27.4124573 Z M24.9780226,9.12732203 C19.3350847,9.12732203 14.7444068,13.6984652 14.7444068,19.3173906 C14.7444068,24.9363159 19.3350847,29.5074591 24.9780226,29.5074591 C30.620678,29.5074591 35.2113559,24.9363159 35.2113559,19.3173906 C35.2113559,13.6984652 30.620678,9.12732203 24.9780226,9.12732203 L24.9780226,9.12732203 Z M3.78056497,28.3721976 C2.60090395,28.3721976 1.64073446,29.328 1.64073446,30.5029225 L1.64073446,32.4640332 C1.64073446,33.6389556 2.60090395,34.5944767 3.78056497,34.5944767 L32.6559887,34.5944767 L29.6220904,30.1996985 C28.1475141,30.8244299 26.5862147,31.1411554 24.9780226,31.1411554 C18.4333898,31.1411554 13.109096,25.8395182 13.109096,19.3227349 C13.109096,12.806233 18.4333898,7.50459574 24.9780226,7.50459574 C31.5226554,7.50459574 36.8466667,12.806233 36.8466667,19.3227349 C36.8466667,22.4067306 35.6633333,25.3118298 33.5085311,27.5297526 L38.3848023,34.5891323 L46.1754802,34.5891323 C47.3554237,34.5891323 48.3150282,33.63333 48.3150282,32.4586888 L48.3150282,30.5029225 C48.3150282,29.328 47.3554237,28.3721976 46.1754802,28.3721976 L39.4376271,28.3721976 L39.4376271,5.79270249 L10.5181356,5.79270249 L10.5181356,28.3721976 L3.78056497,28.3721976 Z M36.0302825,36.5955298 C36.1376271,36.7538925 36.3023164,36.8599365 36.4949718,36.8959409 C36.5387571,36.9038168 36.5822599,36.9080361 36.6251977,36.9080361 C36.7687006,36.9080361 36.9105085,36.8635932 37.0350847,36.7797706 C37.1924294,36.6723202 37.2994915,36.5077692 37.3348023,36.3176213 C37.370113,36.1277548 37.3291525,35.9356379 37.2198305,35.7769939 L32.2828249,28.6259156 C31.8929944,28.9288583 31.4946893,29.2028287 31.0932768,29.4447328 L36.0302825,36.5955298 Z M36.630565,38.5358255 C36.4864972,38.5358255 36.3362147,38.5228864 36.1961017,38.498696 C35.5675706,38.3788691 35.0297175,38.030921 34.6763277,37.5184219 L33.7783051,36.2174843 L3.77491525,36.2174843 C1.69327684,36.2174843 5.64971751e-05,34.5311879 5.64971751e-05,32.4586888 L5.64971751e-05,3.9840476 C5.64971751e-05,1.9115485 1.69327684,0.225252074 3.77491525,0.225252074 L10.5127684,0.225252074 L10.5127684,4.15338045 L39.4376271,4.15338045 L39.4376271,0.225252074 L46.1754802,0.225252074 C48.2568362,0.225252074 49.950339,1.91379877 49.950339,3.98967328 L49.950339,32.4586888 C49.950339,34.5311879 48.2568362,36.2174843 46.1754802,36.2174843 L38.9816949,36.2174843 C38.9749153,36.9738565 38.600339,37.6843794 37.9605085,38.1234634 C37.5630508,38.3934959 37.1037288,38.5358255 36.630565,38.5358255 L36.630565,38.5358255 Z" id="Fill-1" fill="#FFFFFF" mask="url(#mask-2)"></path>
            </g>
            <path d="M29.2094138,23.8574589 L29.2094138,15.4691593 L20.7908661,15.4691593 L20.7908661,19.8665351 L22.6554331,19.8665351 L22.6554331,21.4856525 L20.7908661,21.4856525 L20.7908661,23.8574589 L29.2094138,23.8574589 Z M29.7573053,26.3042553 C29.4552231,26.3042553 29.2094138,26.059492 29.2094138,25.7586953 L29.2094138,24.948579 L20.7908661,24.948579 L20.7908661,25.7586953 C20.7908661,26.059492 20.5450569,26.3042553 20.2429746,26.3042553 C19.9408924,26.3042553 19.6950831,26.059492 19.6950831,25.7586953 L19.6950831,24.948579 L18.8812248,24.948579 C18.5791426,24.948579 18.3333333,24.7038157 18.3333333,24.4030189 C18.3333333,24.1022221 18.5791426,23.8574589 18.8812248,23.8574589 L19.6950831,23.8574589 L19.6950831,15.4747348 L18.8812248,15.4747348 C18.5791426,15.4747348 18.3333333,15.2299715 18.3333333,14.9291747 C18.3333333,14.628378 18.5791426,14.3836147 18.8812248,14.3836147 L19.6950831,14.3836147 L19.6950831,13.5732196 C19.6950831,13.2724229 19.9408924,13.0276596 20.2429746,13.0276596 C20.5450569,13.0276596 20.7908661,13.2724229 20.7908661,13.5732196 L20.7908661,14.3836147 L29.2038145,14.3836147 L29.2038145,13.5732196 C29.2038145,13.2724229 29.4496238,13.0276596 29.751706,13.0276596 C30.0540682,13.0276596 30.2998775,13.2724229 30.2998775,13.5732196 L30.2998775,14.3836147 L31.1134558,14.3836147 C31.4155381,14.3836147 31.6613473,14.628378 31.6613473,14.9291747 C31.6613473,15.2299715 31.4155381,15.4747348 31.1134558,15.4747348 L30.3051969,15.4747348 L30.3051969,23.8574589 L31.1187752,23.8574589 C31.4208574,23.8574589 31.6666667,24.1022221 31.6666667,24.4030189 C31.6666667,24.7038157 31.4208574,24.948579 31.1187752,24.948579 L30.3051969,24.948579 L30.3051969,25.7586953 C30.3051969,26.059492 30.0593876,26.3042553 29.7573053,26.3042553 L29.7573053,26.3042553 Z" id="Fill-3" fill="#FFFFFF"></path>
            <mask id="mask-4" fill="white">
                <use xlink:href="#path-3"></use>
            </mask>
            <g id="Clip-6"></g>
            <path d="M22.0833333,17.8052217 L23.756115,17.8052217 L23.756115,15.1021277 L22.0833333,15.1021277 L22.0833333,17.8052217 Z M26.4027902,21.6722964 L29.1666667,21.6722964 L29.1666667,20.0363022 L26.4027902,20.0363022 L26.4027902,21.6722964 Z M22.0833333,24.2297872 L22.0833333,21.5269749 L23.1182752,21.5269749 L23.1182752,21.0175044 L22.0833333,21.0175044 L22.0833333,18.3144104 L23.7503557,18.3144104 L23.7503557,20.0363022 L25.8821517,20.0363022 L25.8821517,21.6666638 L23.756115,21.6666638 L23.756115,24.2297872 L22.0833333,24.2297872 Z" id="Fill-5" fill="#FFFFFF" mask="url(#mask-4)"></path>
        </g>
    </g>
</svg>